<?xml version="1.0" encoding="utf-8"?>
<!-- Generator: Adobe Illustrator 27.5.0, SVG Export Plug-In . SVG Version: 6.00 Build 0)  -->
<svg version="1.1" xmlns="http://www.w3.org/2000/svg" xmlns:xlink="http://www.w3.org/1999/xlink" x="0px" y="0px"
	 viewBox="0 0 500 500" style="enable-background:new 0 0 500 500;" xml:space="preserve">
<g id="Floor">
	<path id="Floor_4_" style="fill:#F0F0F0;" d="M88.66,405.528c89.577,51.565,234.81,51.566,324.385,0.001
		c89.577-51.567,89.577-135.17,0-186.735c-89.577-51.566-234.81-51.566-324.386-0.001C-0.917,270.358-0.917,353.963,88.66,405.528z"
		/>
</g>
<g id="Shadow">
	<path id="Shadows_1_" style="fill:#E0E0E0;" d="M74.257,349.73l139.003,80.247c2.49,1.437,6.526,1.437,9.016,0l210.88-121.751
		c2.49-1.437,2.49-3.768,0-5.205l-138.992-80.246c-2.49-1.437-6.526-1.437-9.016,0L74.257,344.526
		C71.768,345.963,71.768,348.293,74.257,349.73z"/>
	<path id="Shadow_3_" style="fill:#E0E0E0;" d="M415.565,229.488c-16.405-6.568-42.56-6.568-58.419-0.001
		c-15.859,6.568-15.859,17.217,0,23.784c15.859,6.568,42.014,6.567,58.419,0C431.97,246.704,431.97,236.056,415.565,229.488z"/>
	<path id="Shadow_2_" style="fill:#E0E0E0;" d="M109.529,299.328c-13.135,6.261-34.431,6.261-47.566,0
		c-13.135-6.259-13.135-16.41,0-22.671c13.135-6.26,34.431-6.26,47.566,0C122.664,282.918,122.664,293.069,109.529,299.328z"/>
</g>
<g id="Plants">
	<g id="Plants_4_">
		<g id="XMLID_1237_">
			<path id="XMLID_1241_" style="fill:#27DEBF;" d="M65.213,258.943c-0.511-6.351-5.406-17.185-12.659-24.901
				c-7.253-7.716-18.855-11.434-26.013-8.324c-6.666,2.896-5.201,11.83,3.596,17.12c8.796,5.29,21.9,11.771,26.386,21.779
				l8.691,12.022V258.943z"/>
			<path id="XMLID_1240_" style="opacity:0.1;" d="M65.213,258.943c-0.511-6.351-5.406-17.185-12.659-24.901
				c-7.253-7.716-18.855-11.434-26.013-8.324c-6.666,2.896-5.201,11.83,3.596,17.12c8.796,5.29,21.9,11.771,26.386,21.779
				l8.691,12.022V258.943z"/>
			<g id="XMLID_1238_">
				<path id="XMLID_1239_" style="fill:#FFFFFF;" d="M66.128,267.261c0.046,0,0.093-0.007,0.138-0.022
					c0.23-0.076,0.356-0.326,0.279-0.556c-7.137-21.545-27.384-35.983-35.786-37.363c-0.235-0.041-0.467,0.122-0.505,0.363
					c-0.04,0.24,0.123,0.466,0.363,0.505c8.225,1.351,28.065,15.554,35.094,36.772C65.772,267.144,65.944,267.261,66.128,267.261z"
					/>
			</g>
		</g>
		<g id="XMLID_1235_">
			<path id="XMLID_1236_" style="fill:#27DEBF;" d="M64.263,285.162c-1.307-3.488-6.141-9.028-13.585-13.327
				c-8.235-4.756-18.307-6.437-20.92-10.444c-3.139-4.813,0.721-9.91,8.815-9.561c8.094,0.349,23.064,10.151,26.64,26.432
				L64.263,285.162z"/>
		</g>
		<g id="XMLID_1233_">
			<path id="XMLID_1234_" style="fill:#FFFFFF;" d="M64.636,278.549c0.067,0,0.134-0.015,0.198-0.046
				c0.217-0.109,0.304-0.374,0.196-0.591c-6.968-13.871-21.673-20.354-29.263-21.999c-0.239-0.054-0.471,0.101-0.523,0.337
				c-0.051,0.237,0.099,0.472,0.337,0.522c7.438,1.612,21.844,7.961,28.662,21.535C64.32,278.46,64.475,278.549,64.636,278.549z"/>
		</g>
	</g>
</g>
<g id="Notebook_1_">
	<g id="Notebook_2_">
		<g id="XMLID_220_">
			<path id="XMLID_224_" style="fill:#27DEBF;" d="M178.429,279.992v-2.741l103.896-57.244c1.361-0.786,3.568-0.786,4.93,0
				l144.072,81.289c0,0,0.001,2.209,0.001,2.724c0.001,0.516-0.34,1.031-1.021,1.425l-103.896,59.985L178.429,279.992z"/>
			<path id="XMLID_223_" style="opacity:0.1;" d="M431.328,304.02c-0.001-0.515-0.001-2.724-0.001-2.724l-1.758-0.992
				l-103.158,62.384v2.741l103.896-59.985C430.988,305.051,431.329,304.536,431.328,304.02z"/>
			<path id="XMLID_222_" style="fill:#27DEBF;" d="M178.429,277.251l103.896-59.985c1.361-0.786,3.568-0.786,4.93,0l143.052,82.591
				c1.361,0.786,1.361,2.06,0,2.846l-103.896,59.985L178.429,277.251z"/>
			<polygon id="XMLID_221_" style="opacity:0.2;" points="326.411,365.429 326.411,362.688 178.429,277.251 178.429,279.992 			"/>
		</g>
		<g id="XMLID_216_">
			<path id="XMLID_219_" style="fill:#27DEBF;" d="M180.801,281.306L75.769,336.606l-2.16,3.395v2.735
				c0,1.365,0.787,2.603,2.16,3.395l138.425,79.922c0.999,0.576,2.279,0.894,3.603,0.894c1.325,0,2.604-0.318,3.603-0.894
				l102.688-59.286v-2.735L180.801,281.306z"/>
			<path id="XMLID_218_" style="opacity:0.1;" d="M180.801,281.306L75.769,336.606l-2.16,3.395v2.735
				c0,1.365,0.787,2.603,2.16,3.395l138.425,79.922c0.999,0.576,2.279,0.894,3.603,0.894c1.325,0,2.604-0.318,3.603-0.894
				l102.688-59.286v-2.735L180.801,281.306z"/>
			<path id="XMLID_217_" style="fill:#27DEBF;" d="M217.797,424.213c-1.325,0-2.604-0.318-3.603-0.894L75.769,343.397
				c-1.373-0.793-2.16-2.03-2.16-3.395c0-1.365,0.787-2.603,2.16-3.395l100.411-57.972l147.908,85.399l-102.688,59.286
				C220.402,423.895,219.122,424.213,217.797,424.213z"/>
		</g>
		<g id="XMLID_212_">
			<path id="XMLID_215_" style="fill:#EBEBEB;" d="M176.178,270.611l-99.27,57.314l-1.021,1.423v10.654v0
				c0,0.515,0.34,1.03,1.021,1.423l138.425,79.923c1.361,0.786,3.568,0.786,4.93,0l99.272-57.314v-10.654L176.178,270.611z"/>
			<path id="XMLID_214_" style="fill:#F0F0F0;" d="M319.54,353.384l-1.241,0.717l-16.155,9.324l-3.005,1.742l-78.872,45.527
				c-1.366,0.785-3.575,0.785-4.929,0L76.903,330.767c-1.355-0.785-1.355-2.061,0-2.846l1.321-0.763l97.954-56.547l142.132,82.056
				l0.296,0.182L319.54,353.384z"/>
			<path id="XMLID_213_" style="fill:#E0E0E0;" d="M217.797,411.285v10.654c-0.888,0-1.787-0.194-2.459-0.592L76.903,341.421
				c-0.672-0.387-1.013-0.899-1.013-1.423v-10.654c0,0.512,0.342,1.025,1.013,1.423l138.434,79.926
				C216.009,411.091,216.909,411.285,217.797,411.285z"/>
		</g>
		<path id="XMLID_211_" style="fill:#FAFAFA;" d="M319.54,351.961l-17.874,10.314l-2.8,1.617l-78.598,45.379
			c-1.366,0.785-3.575,0.785-4.929,0L91.373,337.7c-1.116-0.615-2.152-1.218-3.119-1.799c-5.043-3.074-8.083-5.817-10.03-8.743
			c-0.08-0.125-0.159-0.239-0.239-0.364c-0.159-0.239-0.262-0.49-0.307-0.74c-0.228-1.093,0.501-2.14,1.73-2.505
			c2.402-0.717,6.034-1.992,9.347-3.893c0.045-0.023,0.08-0.046,0.125-0.068l87.296-50.399L319.54,351.961z"/>
		<g id="XMLID_169_">
			<g id="XMLID_206_">
				<path id="XMLID_210_" style="opacity:0.1;" d="M301.037,350.71c-1.265,0.737-1.265,1.933,0,2.67
					c1.265,0.737,3.325,0.737,4.602,0c1.277-0.737,1.277-1.933,0-2.67C304.362,349.973,302.302,349.973,301.037,350.71z"/>
				<path id="XMLID_208_" style="fill:#263238;" d="M315.828,342.079c-1.753-1.013-3.95-0.854-6.193,0.433
					c-3.472,2.015-6.478,6.5-7.787,11.202c0.524,0.171,1.116,0.239,1.696,0.205c1.207-4.189,3.871-8.14,6.945-9.927
					c1.002-0.569,1.958-0.865,2.823-0.865c0.603,0,1.161,0.148,1.662,0.433c1.48,0.854,2.334,2.937,2.334,5.704
					c0,0.455-0.023,0.911-0.08,1.366l1.617,0.934c0.114-0.774,0.171-1.548,0.171-2.3
					C319.016,345.87,317.855,343.251,315.828,342.079z"/>
				<path id="XMLID_207_" style="fill:#263238;" d="M318.686,352.45c-0.011,0.125-0.046,0.262-0.08,0.398l-0.296-0.182
					L318.686,352.45z"/>
			</g>
			<g id="XMLID_202_">
				<path id="XMLID_205_" style="opacity:0.1;" d="M287.166,342.698c-1.265,0.737-1.265,1.933,0,2.67
					c1.265,0.737,3.325,0.737,4.603,0c1.277-0.737,1.277-1.933,0-2.67C290.491,341.961,288.43,341.961,287.166,342.698z"/>
				<path id="XMLID_203_" style="fill:#263238;" d="M301.957,334.067c-1.753-1.013-3.95-0.854-6.193,0.433
					c-3.472,2.015-6.478,6.501-7.787,11.202c0.524,0.171,1.116,0.239,1.696,0.205c1.207-4.189,3.871-8.14,6.945-9.927
					c1.002-0.569,1.958-0.865,2.823-0.865c0.603,0,1.161,0.148,1.662,0.433c1.48,0.854,2.334,2.937,2.334,5.704
					c0,0.455-0.023,0.911-0.08,1.366l1.617,0.934c0.114-0.774,0.171-1.548,0.171-2.3
					C305.145,337.858,303.983,335.24,301.957,334.067z"/>
			</g>
			<g id="XMLID_198_">
				<path id="XMLID_201_" style="opacity:0.1;" d="M273.29,334.688c-1.265,0.737-1.265,1.933,0,2.67
					c1.265,0.737,3.325,0.737,4.602,0c1.277-0.737,1.277-1.933,0-2.67C276.616,333.95,274.555,333.95,273.29,334.688z"/>
				<path id="XMLID_199_" style="fill:#263238;" d="M288.082,326.056c-1.753-1.013-3.95-0.854-6.193,0.433
					c-3.472,2.015-6.478,6.501-7.787,11.202c0.524,0.171,1.116,0.239,1.696,0.205c1.207-4.189,3.871-8.14,6.945-9.927
					c1.002-0.569,1.958-0.865,2.823-0.865c0.603,0,1.161,0.148,1.662,0.433c1.48,0.854,2.334,2.937,2.334,5.704
					c0,0.455-0.023,0.911-0.08,1.366l1.617,0.934c0.114-0.774,0.171-1.548,0.171-2.3
					C291.27,329.847,290.108,327.229,288.082,326.056z"/>
			</g>
			<g id="XMLID_194_">
				<path id="XMLID_197_" style="opacity:0.1;" d="M259.418,326.68c-1.265,0.737-1.265,1.933,0,2.67
					c1.265,0.737,3.325,0.737,4.603,0c1.277-0.737,1.277-1.933,0-2.67C262.743,325.943,260.683,325.943,259.418,326.68z"/>
				<path id="XMLID_195_" style="fill:#263238;" d="M274.209,318.049c-1.753-1.013-3.95-0.854-6.193,0.433
					c-3.472,2.015-6.478,6.5-7.787,11.202c0.524,0.171,1.116,0.239,1.696,0.205c1.207-4.19,3.871-8.14,6.944-9.927
					c1.002-0.569,1.958-0.865,2.823-0.865c0.603,0,1.161,0.148,1.662,0.433c1.48,0.854,2.334,2.937,2.334,5.704
					c0,0.455-0.023,0.911-0.08,1.366l1.617,0.934c0.114-0.774,0.171-1.548,0.171-2.3
					C277.397,321.84,276.236,319.221,274.209,318.049z"/>
			</g>
			<g id="XMLID_190_">
				<path id="XMLID_193_" style="opacity:0.1;" d="M245.545,318.67c-1.265,0.737-1.265,1.933,0,2.67
					c1.265,0.737,3.325,0.737,4.603,0c1.277-0.737,1.277-1.933,0-2.67C248.87,317.933,246.81,317.933,245.545,318.67z"/>
				<path id="XMLID_191_" style="fill:#263238;" d="M260.336,310.039c-1.753-1.013-3.95-0.854-6.193,0.433
					c-3.472,2.015-6.478,6.5-7.787,11.202c0.524,0.171,1.116,0.239,1.696,0.205c1.207-4.19,3.871-8.14,6.944-9.927
					c1.002-0.569,1.958-0.865,2.823-0.865c0.603,0,1.161,0.148,1.662,0.433c1.48,0.854,2.334,2.937,2.334,5.704
					c0,0.455-0.023,0.911-0.08,1.366l1.616,0.934c0.114-0.774,0.171-1.548,0.171-2.3
					C263.524,313.83,262.363,311.211,260.336,310.039z"/>
			</g>
			<g id="XMLID_186_">
				<path id="XMLID_189_" style="opacity:0.1;" d="M231.668,310.659c-1.265,0.737-1.265,1.933,0,2.67
					c1.265,0.737,3.325,0.737,4.603,0c1.277-0.737,1.277-1.933,0-2.67C234.994,309.922,232.933,309.922,231.668,310.659z"/>
				<path id="XMLID_187_" style="fill:#263238;" d="M246.46,302.028c-1.753-1.013-3.95-0.854-6.193,0.433
					c-3.472,2.015-6.478,6.501-7.787,11.202c0.524,0.171,1.116,0.239,1.696,0.205c1.207-4.189,3.871-8.14,6.945-9.927
					c1.002-0.569,1.958-0.865,2.823-0.865c0.603,0,1.161,0.148,1.662,0.433c1.48,0.854,2.334,2.937,2.334,5.704
					c0,0.455-0.023,0.911-0.08,1.366l1.617,0.934c0.114-0.774,0.171-1.548,0.171-2.3
					C249.647,305.819,248.486,303.201,246.46,302.028z"/>
			</g>
			<g id="XMLID_182_">
				<path id="XMLID_185_" style="opacity:0.1;" d="M217.797,302.65c-1.265,0.737-1.265,1.933,0,2.67
					c1.265,0.737,3.325,0.737,4.603,0c1.277-0.737,1.277-1.933,0-2.67C221.122,301.913,219.061,301.913,217.797,302.65z"/>
				<path id="XMLID_183_" style="fill:#263238;" d="M232.588,294.019c-1.753-1.013-3.95-0.854-6.193,0.433
					c-3.472,2.015-6.478,6.501-7.787,11.202c0.524,0.171,1.116,0.239,1.696,0.205c1.207-4.189,3.871-8.14,6.945-9.927
					c1.002-0.569,1.958-0.865,2.823-0.865c0.603,0,1.161,0.148,1.662,0.433c1.48,0.854,2.334,2.937,2.334,5.704
					c0,0.455-0.023,0.911-0.08,1.366l1.617,0.934c0.114-0.774,0.171-1.548,0.171-2.3
					C235.776,297.81,234.615,295.191,232.588,294.019z"/>
			</g>
			<g id="XMLID_178_">
				<path id="XMLID_181_" style="opacity:0.1;" d="M203.921,294.64c-1.265,0.737-1.265,1.933,0,2.67
					c1.265,0.737,3.325,0.737,4.602,0c1.277-0.737,1.277-1.933,0-2.67C207.246,293.903,205.186,293.903,203.921,294.64z"/>
				<path id="XMLID_179_" style="fill:#263238;" d="M218.712,286.009c-1.753-1.013-3.95-0.854-6.193,0.433
					c-3.472,2.015-6.478,6.5-7.787,11.202c0.524,0.171,1.116,0.239,1.696,0.205c1.207-4.189,3.871-8.14,6.945-9.927
					c1.002-0.569,1.958-0.865,2.823-0.865c0.603,0,1.161,0.148,1.662,0.433c1.48,0.854,2.334,2.937,2.334,5.704
					c0,0.455-0.023,0.911-0.08,1.366l1.617,0.934c0.114-0.774,0.171-1.548,0.171-2.3C221.9,289.8,220.739,287.181,218.712,286.009z"
					/>
			</g>
			<g id="XMLID_174_">
				<path id="XMLID_177_" style="opacity:0.1;" d="M190.05,286.629c-1.265,0.737-1.265,1.933,0,2.67
					c1.265,0.737,3.325,0.737,4.603,0c1.277-0.737,1.277-1.933,0-2.67C193.375,285.891,191.315,285.891,190.05,286.629z"/>
				<path id="XMLID_175_" style="fill:#263238;" d="M204.841,277.997c-1.753-1.013-3.95-0.854-6.193,0.433
					c-3.472,2.015-6.478,6.5-7.787,11.202c0.524,0.171,1.116,0.239,1.696,0.205c1.207-4.189,3.871-8.14,6.945-9.927
					c1.002-0.569,1.958-0.865,2.823-0.865c0.603,0,1.161,0.148,1.662,0.433c1.48,0.854,2.334,2.937,2.334,5.704
					c0,0.455-0.023,0.911-0.08,1.366l1.617,0.934c0.114-0.774,0.171-1.548,0.171-2.3
					C208.029,281.788,206.868,279.17,204.841,277.997z"/>
			</g>
			<g id="XMLID_170_">
				<path id="XMLID_173_" style="opacity:0.1;" d="M176.174,278.62c-1.265,0.737-1.265,1.933,0,2.67
					c1.265,0.737,3.325,0.737,4.603,0c1.277-0.737,1.277-1.933,0-2.67C179.5,277.883,177.439,277.883,176.174,278.62z"/>
				<path id="XMLID_171_" style="fill:#263238;" d="M190.966,269.989c-1.753-1.013-3.95-0.854-6.193,0.433
					c-3.472,2.015-6.478,6.5-7.787,11.202c0.524,0.171,1.116,0.239,1.696,0.205c1.207-4.19,3.871-8.14,6.945-9.927
					c1.002-0.569,1.958-0.865,2.823-0.865c0.603,0,1.161,0.148,1.662,0.433c1.48,0.854,2.334,2.937,2.334,5.704
					c0,0.455-0.023,0.911-0.08,1.366l1.617,0.934c0.114-0.774,0.171-1.548,0.171-2.3
					C194.153,273.78,192.992,271.161,190.966,269.989z"/>
			</g>
		</g>
		<g id="XMLID_155_">
			
				<line id="XMLID_168_" style="fill:none;stroke:#EBEBEB;stroke-width:0.5692;stroke-linecap:round;stroke-miterlimit:10;" x1="280.298" y1="349.333" x2="203.925" y2="393.427"/>
			
				<line id="XMLID_167_" style="fill:none;stroke:#EBEBEB;stroke-width:0.5692;stroke-linecap:round;stroke-miterlimit:10;" x1="271.048" y1="343.992" x2="194.675" y2="388.087"/>
			
				<line id="XMLID_166_" style="fill:none;stroke:#EBEBEB;stroke-width:0.5692;stroke-linecap:round;stroke-miterlimit:10;" x1="261.798" y1="338.652" x2="185.425" y2="382.747"/>
			
				<line id="XMLID_165_" style="fill:none;stroke:#EBEBEB;stroke-width:0.5692;stroke-linecap:round;stroke-miterlimit:10;" x1="252.548" y1="333.311" x2="176.175" y2="377.406"/>
			
				<line id="XMLID_164_" style="fill:none;stroke:#EBEBEB;stroke-width:0.5692;stroke-linecap:round;stroke-miterlimit:10;" x1="243.299" y1="327.971" x2="166.926" y2="372.066"/>
			
				<line id="XMLID_163_" style="fill:none;stroke:#EBEBEB;stroke-width:0.5692;stroke-linecap:round;stroke-miterlimit:10;" x1="234.049" y1="322.63" x2="157.676" y2="366.725"/>
			
				<line id="XMLID_162_" style="fill:none;stroke:#EBEBEB;stroke-width:0.5692;stroke-linecap:round;stroke-miterlimit:10;" x1="224.799" y1="317.29" x2="148.426" y2="361.385"/>
			
				<line id="XMLID_161_" style="fill:none;stroke:#EBEBEB;stroke-width:0.5692;stroke-linecap:round;stroke-miterlimit:10;" x1="215.549" y1="311.949" x2="139.176" y2="356.044"/>
			
				<line id="XMLID_160_" style="fill:none;stroke:#EBEBEB;stroke-width:0.5692;stroke-linecap:round;stroke-miterlimit:10;" x1="206.299" y1="306.609" x2="129.926" y2="350.704"/>
			
				<line id="XMLID_159_" style="fill:none;stroke:#EBEBEB;stroke-width:0.5692;stroke-linecap:round;stroke-miterlimit:10;" x1="197.05" y1="301.268" x2="120.676" y2="345.363"/>
			
				<line id="XMLID_158_" style="fill:none;stroke:#EBEBEB;stroke-width:0.5692;stroke-linecap:round;stroke-miterlimit:10;" x1="187.8" y1="295.928" x2="111.427" y2="340.023"/>
			
				<line id="XMLID_157_" style="fill:none;stroke:#EBEBEB;stroke-width:0.5692;stroke-linecap:round;stroke-miterlimit:10;" x1="178.55" y1="290.588" x2="102.177" y2="334.683"/>
			
				<line id="XMLID_156_" style="fill:none;stroke:#EBEBEB;stroke-width:0.5692;stroke-linecap:round;stroke-miterlimit:10;" x1="169.3" y1="285.247" x2="92.927" y2="329.342"/>
		</g>
		<g id="XMLID_152_">
			
				<line id="XMLID_154_" style="fill:none;stroke:#27DEBF;stroke-width:0.5692;stroke-linecap:round;stroke-miterlimit:10;" x1="164.667" y1="282.598" x2="298.8" y2="360.011"/>
			
				<line id="XMLID_153_" style="fill:none;stroke:#27DEBF;stroke-width:0.5692;stroke-linecap:round;stroke-miterlimit:10;" x1="294.097" y1="352.045" x2="213.316" y2="398.767"/>
		</g>
		<g id="XMLID_114_" style="opacity:0.25;">
			<g id="XMLID_145_">
				<path id="XMLID_149_" style="fill:#455A64;" d="M253.693,342.276c-0.705-1.069-2.008-1.497-3.121-2.001
					c-0.456-0.206-0.97-0.486-1.508-0.768c-0.706-1.131-1.638-2.97-0.401-3.204c0.738-0.139,2.17,0.636,2.971,0.874
					c0.448,0.133,0.345-0.522,0.031-0.646c-1.361-0.535-3.963-2.222-4.523,0.093c-0.151,0.626-0.006,1.365,0.315,2.128
					c-0.683-0.263-1.367-0.43-2.005-0.37c-0.641,0.06-1.19,0.078-1.415,0.829c-0.123,0.413,0.054,0.593,0.081,0.904
					c0.04,0.475,0.512,0.627,0.646,0.658c-0.074-0.012-0.282-0.038-0.725-0.055c-0.963-0.037-3.595-0.675-4.206,0.521
					c-0.253,0.495,0.325,1.181,0.241,1.367c-0.039,0.087-1.916,0.719-2.244,0.921c-0.147,0.091-0.047,0.611-0.13,0.659
					c-0.285,0.165-2.218-0.026-2.778,0.02c-1.532,0.125-5.316-0.445-4.82,1.911c0.054,0.256,0.258,0.219,0.306,0.632
					c0.04,0.336,0.083,0.499,0.116,0.574c-0.056-0.009-0.161,0.038-0.361,0.317c-0.129,0.18-0.657,0.125-0.846,0.363
					c-0.726,0.909,0.384,1.227-0.52,1.794c-1.273,0.798-3.927-0.818-5.222,0.076c-1.153,0.796,0.347,3.083-1.689,3.123
					c-0.449,0.009-0.187,0.673,0.152,0.702c1.902,0.167,1.696-0.192,2.061-1.746c0.596-2.535,4.378-0.788,6.502-1.375
					c0.246-0.068,0.268-0.372,0.153-0.557c-0.557-0.9,0.093-1.396,0.932-1.786c0.231-0.108,0.277-0.331,0.156-0.551
					c-0.228-0.415-1.034-1.678-0.541-2.273c0.114-0.137,1.989-0.248,2.254-0.263c1.646-0.091,3.288-0.17,4.943-0.087
					c0.229,0.011,0.409-0.261,0.316-0.468c-0.238-0.53,1.898-0.869,2.373-0.975c0.186-0.042,0.268-0.288,0.203-0.45
					c-1.021-2.536,2.739-1.602,4.3-1.356c0.304,0.048,0.519-0.186,0.435-0.48c-0.245-0.855-2.132-1.713,0.106-2.027
					c0.438-0.061,1.056,0.126,1.715,0.41c1.027,1.741,2.75,3.422,3.907,4.027C253.329,344.516,254.832,344.004,253.693,342.276z
					 M253.002,342.735c0.465,0.626-1.003,0.118-1.184,0.037c-0.866-0.388-1.442-1.335-1.958-2.086
					c0.455,0.25,0.864,0.475,1.162,0.613C251.824,341.669,252.459,342.004,253.002,342.735z"/>
				<path id="XMLID_146_" style="fill:#455A64;" d="M215.495,358.365c-0.279-1.103-0.311-2.311,0.712-2.445
					c0.492-0.064,0.142-0.734-0.226-0.746c-1.383-0.044-1.815,1.155-1.635,2.6c-0.635-0.287-1.235-0.492-1.714-0.582
					c-0.897-0.168-1.479-0.197-1.776,0.719c-0.177,0.546,0.262,0.902,0.228,1.394c-0.05,0.723,0.673,0.425-0.414,0.711
					c-0.274,0.072-0.943-0.117-1.263-0.131c-1.094-0.048-1.193,0.02-1.858,0.579c-0.681,0.572,1.003,0.845-0.993,0.525
					c-0.508-0.081-1.032-0.337-1.565-0.217c-0.735,0.166-1.12,0.376-0.999,1.189c0.055,0.365,0.843,0.849,0.837,1.082
					c-0.042,1.756-1.907,0.268-2.624,0.004c-0.199-0.073-0.443,0.052-0.451,0.275c-0.032,0.868,0.579,1.174-0.684,1.254
					c-0.153,0.01-1.021-0.478-1.299-0.484c-0.814-0.019-1.556,1.058-2.617,0.97c-0.289-0.024-0.387,0.237-0.301,0.472
					c0.293,0.792,0.722,1.272-0.874,1.956c-0.037,0.016-1.88-0.232-1.838-0.231c-0.459-0.012-0.166,0.742,0.188,0.769
					c0.729,0.055,3.196,1.096,3.926,0.112c0.538-0.726-0.523-1.568-0.258-2.03c-0.174,0.304,1.407-0.432,1.581-0.492
					c0.261-0.089,0.9-0.354,1.236-0.338c0.222,0.011,0.406,0.358,0.64,0.356c0.309-0.003,0.637,0.149,0.917-0.017
					c0.213-0.126,0.346-0.516,0.458-0.59c0.281-0.185-0.363-0.409,0.189-0.599c0.401-0.138,0.747,0.268,1.121,0.386
					c0.596,0.188,1.5,0.629,2.012-0.012c0.664-0.832-0.558-1.409-0.443-1.969c0.256-1.25,2.042-0.303,2.86-0.858
					c0.126-0.086,0.156-0.246,0.115-0.385c-0.504-1.728,2.632-0.375,3.619-0.559c0.176-0.033,0.363-0.149,0.337-0.359
					c-0.02-0.16-0.393-1.073-0.389-1.086c0.247-1.037,1.674-0.922,2.332-0.746c0.635,2.103,2.303,4.225,4.123,3.658
					c0.134-0.042,0.242-0.173,0.229-0.319C218.812,360.782,217.189,359.346,215.495,358.365z M216.15,360.097
					c-0.063-0.108-0.148-0.284-0.238-0.496c0.61,0.45,1.183,0.979,1.278,1.261C217.542,361.909,216.321,360.39,216.15,360.097z"/>
			</g>
			<g id="XMLID_138_">
				<path id="XMLID_142_" style="fill:#455A64;" d="M243.248,369.642c-0.705-1.069-2.008-1.497-3.121-2.001
					c-0.456-0.206-0.97-0.486-1.508-0.768c-0.706-1.131-1.638-2.97-0.401-3.204c0.738-0.14,2.17,0.636,2.971,0.874
					c0.448,0.133,0.345-0.522,0.031-0.645c-1.361-0.535-3.963-2.222-4.523,0.093c-0.151,0.626-0.006,1.365,0.315,2.128
					c-0.683-0.263-1.367-0.43-2.005-0.37c-0.641,0.06-1.19,0.078-1.415,0.829c-0.123,0.413,0.054,0.593,0.081,0.904
					c0.04,0.475,0.512,0.627,0.646,0.658c-0.074-0.012-0.282-0.038-0.725-0.055c-0.963-0.037-3.595-0.675-4.206,0.522
					c-0.253,0.495,0.325,1.181,0.241,1.367c-0.039,0.087-1.916,0.719-2.244,0.921c-0.147,0.091-0.047,0.611-0.13,0.659
					c-0.285,0.165-2.218-0.026-2.778,0.02c-1.532,0.125-5.316-0.445-4.82,1.911c0.054,0.256,0.258,0.219,0.306,0.632
					c0.04,0.336,0.083,0.499,0.116,0.574c-0.056-0.009-0.161,0.039-0.361,0.317c-0.129,0.18-0.657,0.125-0.847,0.363
					c-0.725,0.909,0.384,1.227-0.52,1.794c-1.274,0.798-3.927-0.818-5.222,0.076c-1.153,0.796,0.347,3.083-1.689,3.123
					c-0.449,0.009-0.187,0.673,0.152,0.703c1.902,0.167,1.696-0.192,2.061-1.746c0.596-2.535,4.377-0.788,6.502-1.375
					c0.246-0.068,0.268-0.372,0.153-0.557c-0.557-0.9,0.093-1.396,0.932-1.786c0.231-0.107,0.277-0.331,0.156-0.551
					c-0.228-0.415-1.034-1.678-0.541-2.273c0.114-0.137,1.989-0.248,2.254-0.263c1.646-0.091,3.288-0.17,4.943-0.087
					c0.229,0.011,0.409-0.261,0.316-0.468c-0.237-0.53,1.898-0.869,2.373-0.976c0.186-0.042,0.268-0.288,0.203-0.45
					c-1.021-2.536,2.739-1.602,4.3-1.356c0.304,0.048,0.519-0.186,0.435-0.48c-0.245-0.854-2.132-1.713,0.106-2.027
					c0.438-0.061,1.056,0.126,1.715,0.41c1.027,1.741,2.75,3.422,3.907,4.027C242.884,371.882,244.387,371.37,243.248,369.642z
					 M242.557,370.102c0.465,0.626-1.003,0.118-1.184,0.037c-0.866-0.388-1.442-1.335-1.958-2.086
					c0.455,0.249,0.864,0.475,1.162,0.613C241.379,369.035,242.014,369.371,242.557,370.102z"/>
				<path id="XMLID_139_" style="fill:#455A64;" d="M266.722,350.236c-0.279-1.103-0.311-2.311,0.712-2.445
					c0.492-0.064,0.142-0.734-0.226-0.746c-1.383-0.044-1.815,1.155-1.635,2.6c-0.635-0.287-1.235-0.492-1.714-0.582
					c-0.897-0.168-1.479-0.197-1.776,0.719c-0.177,0.546,0.262,0.902,0.228,1.393c-0.05,0.723,0.673,0.425-0.414,0.711
					c-0.274,0.072-0.942-0.117-1.263-0.131c-1.094-0.048-1.193,0.02-1.858,0.58c-0.681,0.572,1.003,0.845-0.993,0.525
					c-0.508-0.081-1.032-0.337-1.565-0.217c-0.735,0.166-1.12,0.376-0.999,1.189c0.055,0.364,0.843,0.849,0.837,1.082
					c-0.042,1.756-1.907,0.268-2.624,0.004c-0.199-0.073-0.442,0.052-0.451,0.275c-0.032,0.868,0.58,1.174-0.684,1.253
					c-0.153,0.01-1.021-0.478-1.299-0.484c-0.814-0.019-1.556,1.058-2.617,0.97c-0.289-0.024-0.387,0.237-0.301,0.472
					c0.293,0.792,0.722,1.272-0.874,1.956c-0.037,0.016-1.88-0.232-1.838-0.231c-0.459-0.012-0.166,0.742,0.188,0.769
					c0.73,0.055,3.196,1.096,3.926,0.112c0.538-0.725-0.523-1.568-0.258-2.03c-0.174,0.304,1.407-0.432,1.58-0.492
					c0.261-0.089,0.9-0.355,1.236-0.338c0.222,0.011,0.406,0.358,0.64,0.356c0.309-0.003,0.637,0.149,0.917-0.017
					c0.213-0.126,0.346-0.516,0.458-0.59c0.281-0.185-0.363-0.409,0.189-0.599c0.401-0.138,0.747,0.268,1.121,0.386
					c0.596,0.188,1.5,0.629,2.012-0.012c0.664-0.832-0.558-1.409-0.443-1.969c0.256-1.25,2.042-0.303,2.86-0.858
					c0.126-0.086,0.156-0.246,0.115-0.385c-0.504-1.728,2.632-0.375,3.619-0.559c0.176-0.033,0.363-0.149,0.337-0.359
					c-0.019-0.16-0.392-1.073-0.389-1.086c0.247-1.037,1.674-0.922,2.332-0.747c0.635,2.104,2.303,4.225,4.123,3.658
					c0.134-0.042,0.242-0.173,0.229-0.319C270.04,352.653,268.416,351.216,266.722,350.236z M267.377,351.967
					c-0.063-0.108-0.148-0.284-0.238-0.496c0.61,0.45,1.183,0.979,1.278,1.261C268.77,353.78,267.549,352.26,267.377,351.967z"/>
			</g>
			<g id="XMLID_131_">
				<path id="XMLID_135_" style="fill:#455A64;" d="M197.277,311.093c-0.705-1.069-2.008-1.497-3.121-2.001
					c-0.456-0.206-0.97-0.486-1.508-0.768c-0.706-1.131-1.638-2.97-0.401-3.204c0.738-0.14,2.17,0.636,2.971,0.874
					c0.448,0.133,0.345-0.522,0.031-0.645c-1.361-0.535-3.963-2.222-4.523,0.093c-0.151,0.626-0.006,1.365,0.315,2.128
					c-0.683-0.263-1.368-0.43-2.005-0.37c-0.641,0.06-1.19,0.078-1.415,0.829c-0.123,0.413,0.054,0.593,0.08,0.904
					c0.04,0.475,0.512,0.627,0.646,0.658c-0.074-0.012-0.282-0.038-0.725-0.055c-0.963-0.037-3.595-0.675-4.206,0.521
					c-0.253,0.495,0.325,1.181,0.241,1.367c-0.039,0.087-1.916,0.719-2.244,0.921c-0.147,0.091-0.047,0.611-0.13,0.659
					c-0.285,0.165-2.218-0.026-2.778,0.02c-1.532,0.125-5.316-0.445-4.82,1.911c0.054,0.256,0.258,0.219,0.306,0.632
					c0.04,0.336,0.083,0.499,0.116,0.574c-0.056-0.009-0.161,0.039-0.361,0.317c-0.129,0.18-0.656,0.125-0.846,0.363
					c-0.726,0.909,0.384,1.227-0.52,1.794c-1.274,0.798-3.926-0.818-5.222,0.076c-1.153,0.796,0.347,3.083-1.688,3.123
					c-0.449,0.009-0.187,0.673,0.152,0.702c1.902,0.167,1.696-0.192,2.061-1.746c0.596-2.535,4.377-0.788,6.502-1.375
					c0.246-0.068,0.268-0.372,0.153-0.557c-0.557-0.9,0.093-1.396,0.932-1.786c0.232-0.107,0.277-0.331,0.156-0.551
					c-0.227-0.415-1.034-1.678-0.541-2.273c0.114-0.137,1.988-0.248,2.254-0.263c1.646-0.091,3.288-0.17,4.943-0.087
					c0.229,0.011,0.409-0.261,0.316-0.468c-0.238-0.53,1.898-0.869,2.373-0.976c0.186-0.042,0.268-0.288,0.203-0.45
					c-1.021-2.536,2.739-1.602,4.3-1.356c0.304,0.048,0.519-0.186,0.435-0.48c-0.245-0.854-2.132-1.713,0.106-2.027
					c0.438-0.061,1.056,0.126,1.715,0.41c1.027,1.741,2.75,3.422,3.907,4.027C196.913,313.333,198.416,312.821,197.277,311.093z
					 M196.586,311.552c0.465,0.626-1.004,0.118-1.184,0.037c-0.866-0.388-1.442-1.335-1.958-2.086
					c0.455,0.249,0.864,0.475,1.162,0.613C195.409,310.486,196.043,310.821,196.586,311.552z"/>
				<path id="XMLID_132_" style="fill:#455A64;" d="M159.079,327.182c-0.279-1.103-0.311-2.311,0.712-2.445
					c0.492-0.064,0.142-0.734-0.226-0.746c-1.383-0.044-1.815,1.155-1.635,2.6c-0.635-0.287-1.235-0.492-1.714-0.582
					c-0.897-0.168-1.479-0.197-1.776,0.719c-0.177,0.546,0.262,0.902,0.228,1.394c-0.05,0.723,0.673,0.425-0.414,0.711
					c-0.274,0.072-0.943-0.117-1.263-0.131c-1.094-0.048-1.193,0.02-1.858,0.58c-0.68,0.572,1.003,0.845-0.993,0.525
					c-0.508-0.081-1.032-0.337-1.565-0.217c-0.735,0.166-1.12,0.376-0.999,1.189c0.055,0.364,0.843,0.849,0.837,1.082
					c-0.042,1.756-1.907,0.268-2.624,0.004c-0.199-0.073-0.442,0.052-0.451,0.275c-0.032,0.868,0.579,1.174-0.684,1.253
					c-0.153,0.01-1.021-0.478-1.299-0.484c-0.814-0.019-1.556,1.058-2.617,0.97c-0.289-0.024-0.387,0.237-0.301,0.472
					c0.293,0.792,0.722,1.272-0.874,1.956c-0.037,0.016-1.88-0.232-1.838-0.231c-0.459-0.012-0.166,0.742,0.188,0.769
					c0.73,0.055,3.196,1.096,3.926,0.112c0.538-0.725-0.523-1.568-0.258-2.03c-0.174,0.304,1.407-0.432,1.581-0.492
					c0.261-0.089,0.9-0.354,1.236-0.338c0.222,0.011,0.406,0.358,0.64,0.356c0.309-0.003,0.637,0.149,0.917-0.017
					c0.213-0.126,0.346-0.516,0.458-0.59c0.281-0.185-0.363-0.41,0.189-0.599c0.401-0.138,0.747,0.268,1.121,0.386
					c0.596,0.188,1.5,0.629,2.012-0.012c0.664-0.832-0.557-1.409-0.443-1.969c0.256-1.25,2.042-0.303,2.86-0.858
					c0.126-0.086,0.156-0.246,0.115-0.385c-0.504-1.728,2.632-0.375,3.619-0.559c0.176-0.033,0.363-0.149,0.337-0.359
					c-0.019-0.16-0.392-1.073-0.389-1.086c0.247-1.037,1.674-0.921,2.331-0.746c0.635,2.104,2.303,4.225,4.123,3.658
					c0.134-0.042,0.242-0.173,0.229-0.319C162.396,329.599,160.773,328.163,159.079,327.182z M159.734,328.914
					c-0.063-0.108-0.148-0.284-0.238-0.496c0.61,0.45,1.183,0.979,1.278,1.261C161.127,330.727,159.906,329.207,159.734,328.914z"/>
			</g>
			<g id="XMLID_124_">
				<path id="XMLID_128_" style="fill:#455A64;" d="M186.832,338.459c-0.705-1.069-2.008-1.497-3.121-2.001
					c-0.456-0.206-0.97-0.486-1.508-0.768c-0.706-1.131-1.638-2.97-0.401-3.204c0.738-0.14,2.17,0.636,2.971,0.874
					c0.448,0.133,0.345-0.522,0.031-0.645c-1.361-0.535-3.963-2.222-4.523,0.093c-0.151,0.626-0.006,1.365,0.315,2.128
					c-0.683-0.263-1.367-0.43-2.005-0.37c-0.641,0.06-1.19,0.078-1.415,0.829c-0.123,0.413,0.054,0.593,0.08,0.904
					c0.04,0.475,0.512,0.627,0.646,0.658c-0.074-0.012-0.282-0.038-0.725-0.055c-0.963-0.037-3.595-0.675-4.206,0.521
					c-0.253,0.495,0.325,1.181,0.241,1.367c-0.039,0.087-1.916,0.719-2.244,0.921c-0.147,0.091-0.047,0.611-0.13,0.659
					c-0.285,0.165-2.218-0.026-2.778,0.02c-1.532,0.125-5.316-0.445-4.82,1.911c0.054,0.256,0.258,0.219,0.306,0.632
					c0.039,0.336,0.083,0.499,0.116,0.574c-0.056-0.009-0.161,0.038-0.361,0.317c-0.129,0.18-0.657,0.125-0.846,0.363
					c-0.726,0.909,0.383,1.227-0.521,1.794c-1.273,0.798-3.926-0.818-5.222,0.076c-1.153,0.796,0.347,3.083-1.689,3.123
					c-0.449,0.009-0.187,0.673,0.152,0.702c1.902,0.167,1.696-0.192,2.061-1.746c0.596-2.535,4.377-0.788,6.502-1.375
					c0.246-0.068,0.268-0.372,0.153-0.557c-0.557-0.9,0.093-1.396,0.932-1.786c0.232-0.108,0.277-0.331,0.156-0.551
					c-0.227-0.415-1.034-1.678-0.541-2.273c0.114-0.137,1.989-0.248,2.254-0.263c1.646-0.091,3.288-0.17,4.943-0.087
					c0.229,0.011,0.409-0.261,0.316-0.468c-0.238-0.53,1.898-0.869,2.373-0.975c0.186-0.042,0.268-0.288,0.203-0.45
					c-1.021-2.536,2.739-1.602,4.3-1.356c0.304,0.048,0.519-0.186,0.435-0.48c-0.245-0.855-2.132-1.713,0.106-2.027
					c0.438-0.061,1.056,0.126,1.715,0.41c1.027,1.741,2.75,3.422,3.907,4.027C186.468,340.699,187.971,340.187,186.832,338.459z
					 M186.141,338.919c0.465,0.626-1.004,0.118-1.185,0.037c-0.866-0.388-1.442-1.335-1.958-2.086
					c0.455,0.25,0.864,0.475,1.162,0.613C184.964,337.853,185.598,338.188,186.141,338.919z"/>
				<path id="XMLID_125_" style="fill:#455A64;" d="M210.306,319.052c-0.279-1.103-0.312-2.311,0.712-2.445
					c0.492-0.064,0.142-0.734-0.226-0.746c-1.383-0.044-1.815,1.155-1.635,2.6c-0.635-0.287-1.235-0.492-1.714-0.582
					c-0.898-0.168-1.479-0.197-1.776,0.719c-0.177,0.546,0.262,0.902,0.228,1.393c-0.05,0.723,0.674,0.425-0.413,0.711
					c-0.274,0.072-0.943-0.117-1.263-0.131c-1.094-0.048-1.193,0.02-1.858,0.58c-0.68,0.572,1.003,0.845-0.993,0.525
					c-0.508-0.081-1.032-0.337-1.565-0.217c-0.735,0.166-1.12,0.376-0.999,1.189c0.055,0.365,0.843,0.849,0.837,1.082
					c-0.042,1.756-1.907,0.268-2.624,0.004c-0.199-0.073-0.443,0.052-0.451,0.275c-0.032,0.868,0.579,1.174-0.684,1.253
					c-0.153,0.01-1.021-0.478-1.299-0.484c-0.814-0.019-1.556,1.058-2.617,0.97c-0.289-0.024-0.387,0.237-0.301,0.472
					c0.293,0.792,0.722,1.272-0.874,1.956c-0.037,0.016-1.88-0.233-1.838-0.231c-0.459-0.012-0.166,0.742,0.188,0.769
					c0.73,0.055,3.196,1.096,3.926,0.112c0.538-0.726-0.523-1.568-0.258-2.03c-0.174,0.304,1.407-0.432,1.58-0.492
					c0.261-0.089,0.9-0.354,1.236-0.338c0.222,0.011,0.406,0.358,0.64,0.356c0.309-0.003,0.637,0.149,0.917-0.017
					c0.213-0.126,0.346-0.516,0.458-0.59c0.281-0.185-0.363-0.409,0.189-0.599c0.401-0.138,0.747,0.268,1.121,0.386
					c0.596,0.188,1.5,0.629,2.012-0.012c0.664-0.832-0.557-1.409-0.443-1.969c0.256-1.25,2.042-0.303,2.86-0.858
					c0.126-0.086,0.156-0.246,0.115-0.385c-0.504-1.728,2.632-0.375,3.619-0.559c0.176-0.033,0.362-0.149,0.337-0.359
					c-0.019-0.16-0.392-1.073-0.389-1.086c0.247-1.037,1.674-0.922,2.332-0.746c0.635,2.104,2.303,4.225,4.123,3.658
					c0.134-0.042,0.242-0.173,0.229-0.319C213.624,321.47,212.001,320.033,210.306,319.052z M210.961,320.784
					c-0.063-0.108-0.148-0.284-0.238-0.496c0.61,0.45,1.183,0.979,1.278,1.261C212.354,322.597,211.133,321.077,210.961,320.784z"/>
			</g>
			<g id="XMLID_115_">
				<path id="XMLID_121_" style="fill:#455A64;" d="M192.632,357.291c-0.705-1.069-2.008-1.497-3.121-2.001
					c-0.456-0.206-0.97-0.486-1.508-0.768c-0.706-1.131-1.638-2.97-0.401-3.204c0.738-0.139,2.17,0.636,2.971,0.874
					c0.448,0.133,0.345-0.522,0.031-0.645c-1.361-0.535-3.963-2.222-4.523,0.093c-0.151,0.626-0.006,1.365,0.315,2.128
					c-0.683-0.263-1.367-0.43-2.005-0.37c-0.641,0.06-1.19,0.078-1.415,0.829c-0.123,0.413,0.054,0.593,0.08,0.904
					c0.04,0.475,0.512,0.627,0.646,0.658c-0.074-0.012-0.282-0.038-0.725-0.055c-0.963-0.037-3.595-0.675-4.206,0.521
					c-0.253,0.495,0.325,1.181,0.241,1.367c-0.039,0.087-1.916,0.719-2.244,0.921c-0.147,0.091-0.047,0.611-0.13,0.659
					c-0.285,0.165-2.218-0.026-2.778,0.02c-1.532,0.125-5.316-0.445-4.82,1.912c0.054,0.256,0.258,0.219,0.306,0.632
					c0.039,0.336,0.083,0.499,0.116,0.574c-0.056-0.009-0.161,0.039-0.361,0.317c-0.129,0.18-0.656,0.125-0.846,0.363
					c-0.726,0.91,0.383,1.227-0.521,1.794c-1.273,0.798-3.926-0.818-5.222,0.076c-1.153,0.796,0.347,3.083-1.688,3.123
					c-0.449,0.009-0.187,0.673,0.152,0.702c1.902,0.167,1.696-0.191,2.061-1.746c0.596-2.535,4.377-0.788,6.502-1.375
					c0.246-0.068,0.267-0.372,0.153-0.557c-0.557-0.899,0.093-1.396,0.932-1.786c0.232-0.108,0.277-0.331,0.156-0.551
					c-0.227-0.415-1.034-1.678-0.541-2.273c0.114-0.137,1.988-0.248,2.254-0.263c1.646-0.091,3.288-0.17,4.943-0.087
					c0.229,0.011,0.409-0.26,0.316-0.468c-0.238-0.53,1.898-0.869,2.373-0.975c0.186-0.042,0.268-0.288,0.203-0.45
					c-1.021-2.536,2.739-1.602,4.3-1.356c0.304,0.048,0.519-0.186,0.435-0.48c-0.245-0.854-2.132-1.713,0.106-2.027
					c0.438-0.061,1.056,0.126,1.715,0.41c1.027,1.741,2.75,3.422,3.907,4.027C192.268,359.531,193.771,359.019,192.632,357.291z
					 M191.941,357.751c0.465,0.626-1.004,0.118-1.185,0.037c-0.866-0.388-1.442-1.335-1.958-2.086
					c0.455,0.25,0.864,0.476,1.162,0.613C190.763,356.684,191.398,357.02,191.941,357.751z"/>
				<path id="XMLID_118_" style="fill:#455A64;" d="M211.227,339.605c-0.279-1.103-0.311-2.311,0.712-2.445
					c0.492-0.064,0.142-0.734-0.226-0.746c-1.383-0.044-1.815,1.155-1.635,2.6c-0.635-0.287-1.235-0.492-1.714-0.582
					c-0.897-0.168-1.479-0.197-1.776,0.719c-0.177,0.546,0.262,0.902,0.228,1.393c-0.05,0.723,0.673,0.425-0.414,0.711
					c-0.274,0.072-0.942-0.117-1.263-0.131c-1.094-0.048-1.193,0.02-1.858,0.58c-0.68,0.572,1.003,0.845-0.993,0.525
					c-0.508-0.081-1.032-0.337-1.565-0.217c-0.735,0.166-1.12,0.376-0.999,1.189c0.054,0.364,0.843,0.849,0.837,1.082
					c-0.042,1.756-1.907,0.268-2.624,0.004c-0.199-0.073-0.442,0.052-0.451,0.275c-0.032,0.868,0.579,1.174-0.684,1.253
					c-0.153,0.01-1.021-0.478-1.299-0.484c-0.814-0.019-1.556,1.058-2.617,0.97c-0.289-0.024-0.387,0.237-0.301,0.472
					c0.293,0.792,0.722,1.272-0.874,1.957c-0.037,0.016-1.88-0.233-1.838-0.231c-0.459-0.012-0.166,0.742,0.188,0.769
					c0.73,0.055,3.196,1.096,3.926,0.112c0.538-0.725-0.522-1.568-0.258-2.03c-0.174,0.304,1.407-0.432,1.581-0.492
					c0.261-0.089,0.9-0.354,1.236-0.338c0.222,0.011,0.406,0.358,0.64,0.356c0.309-0.003,0.637,0.149,0.917-0.017
					c0.213-0.126,0.346-0.516,0.458-0.59c0.281-0.185-0.363-0.41,0.189-0.599c0.401-0.138,0.747,0.268,1.121,0.386
					c0.596,0.188,1.5,0.629,2.012-0.012c0.663-0.832-0.558-1.409-0.443-1.969c0.256-1.25,2.042-0.303,2.86-0.858
					c0.126-0.086,0.155-0.246,0.115-0.385c-0.504-1.728,2.632-0.375,3.619-0.559c0.176-0.033,0.363-0.149,0.337-0.359
					c-0.02-0.16-0.393-1.073-0.389-1.086c0.247-1.037,1.674-0.922,2.331-0.747c0.635,2.104,2.303,4.225,4.123,3.658
					c0.134-0.042,0.242-0.173,0.229-0.319C214.545,342.023,212.921,340.586,211.227,339.605z M211.882,341.337
					c-0.063-0.108-0.148-0.284-0.238-0.496c0.61,0.45,1.183,0.979,1.278,1.261C213.275,343.15,212.054,341.63,211.882,341.337z"/>
				<path id="XMLID_116_" style="fill:#455A64;" d="M232.522,325.277c0.022-0.141,0.026-0.281-0.012-0.419
					c-0.298-1.076-1.541-0.271-1.755,0.389c-0.177,0.546,0.262,0.902,0.228,1.393c-0.05,0.723,0.673,0.425-0.414,0.711
					c-0.274,0.072-0.943-0.117-1.263-0.131c-1.094-0.048-1.193,0.02-1.858,0.58c-0.681,0.572,1.003,0.845-0.993,0.525
					c-0.508-0.081-1.032-0.337-1.565-0.217c-0.735,0.166-1.12,0.376-0.999,1.189c0.055,0.364,0.843,0.849,0.837,1.082
					c-0.042,1.756-1.907,0.268-2.624,0.004c-0.199-0.073-0.443,0.052-0.451,0.275c-0.032,0.868,0.579,1.174-0.684,1.253
					c-0.153,0.01-1.021-0.478-1.299-0.484c-0.814-0.019-1.556,1.058-2.617,0.97c-0.289-0.024-0.387,0.237-0.301,0.472
					c0.293,0.792,0.722,1.272-0.874,1.956c-0.037,0.016-1.88-0.232-1.838-0.231c-0.459-0.012-0.166,0.742,0.188,0.769
					c0.73,0.055,3.196,1.096,3.926,0.112c0.538-0.726-0.523-1.568-0.258-2.03c-0.174,0.304,1.407-0.432,1.581-0.492
					c0.261-0.089,0.9-0.354,1.236-0.338c0.222,0.011,0.406,0.358,0.64,0.356c0.309-0.003,0.637,0.149,0.917-0.017
					c0.213-0.126,0.346-0.516,0.458-0.59c0.281-0.185-0.363-0.41,0.189-0.599c0.401-0.138,0.747,0.268,1.121,0.386
					c0.596,0.188,1.5,0.629,2.012-0.012c0.664-0.832-0.558-1.409-0.443-1.969c0.256-1.25,2.042-0.303,2.86-0.858
					c0.126-0.086,0.156-0.246,0.115-0.385c-0.504-1.728,2.632-0.375,3.619-0.559c0.176-0.033,0.363-0.149,0.337-0.359
					c-0.098-0.805-0.362-1.369-0.142-2.226C232.441,325.616,232.495,325.446,232.522,325.277z"/>
			</g>
		</g>
	</g>
</g>
<g id="Character">
	<g id="Character_1_">
		<g id="XMLID_1080_">
			<path id="XMLID_1081_" style="fill:#F28F8F;" d="M105.293,113.062c4.66,5.569,12.356,13.09,16.723,18.572
				c2.293,2.878,3.594,6.446,3.541,10.125c-0.039,2.73-0.781,5.009-3.45,3.846c-1.927-0.84-3.154-1.84-5.968-4.615
				c-2.531-2.496-14.772-13.966-14.772-13.966s-2.292-14.097-6.075-15.245c-3.783-1.148-7.002-7.183-7.002-7.183
				C94.463,103.975,99.38,105.996,105.293,113.062z"/>
		</g>
		<g id="XMLID_865_">
			<g id="XMLID_1103_">
				<g id="XMLID_1104_">
					<path id="XMLID_1483_" style="fill:#FFA8A7;" d="M147.891,258.636l21.869,32.013c0.636,0.931,2.09,0.525,2.152-0.601
						l2.132-38.936L147.891,258.636z"/>
					<path id="XMLID_1482_" style="fill:#263238;" d="M171.911,290.049c-0.062,1.126-1.516,1.532-2.152,0.601l-4.27-6.25l0,0
						c2.387,0.542,4.876-0.296,6.45-2.17l0.428-0.51L171.911,290.049z"/>
					<path id="XMLID_1481_" style="fill:#27DEBF;" d="M130.101,93.58l0.962,3.457l1.178,4.167l41.804,149.905
						c-1.897,3.934-5.561,6.676-9.612,8.244c-6.161,2.409-13.239,2.125-16.525-0.723l-41.494-148.799l-2.222-7.973
						C105.916,106.94,131.762,98.702,130.101,93.58z"/>
					<path id="XMLID_1128_" style="fill:#EBEBEB;" d="M133.813,106.728l2.139,7.723c0.695,2.218-3.677,4.98-9.044,7.005
						c-7.122,2.709-15.997,4.119-16.923,1.181l-1.587-5.69l-0.532-2.044c0.925,2.938,9.803,1.534,16.925-1.176
						c5.14-1.948,9.379-4.592,9.067-6.753l-0.005-0.023C133.86,106.876,133.843,106.807,133.813,106.728z"/>
					<path id="XMLID_1125_" style="fill:#27DEBF;" d="M134.329,108.66c1.623,5.148-24.327,13.329-25.95,8.181l-2.166-7.724
						c1.623,5.148,27.57-3.032,25.947-8.18L134.329,108.66z"/>
					<path id="XMLID_1124_" style="fill:#EBEBEB;" d="M130.101,93.58l2.14,7.624c1.63,5.043-23.342,13.186-25.828,8.627
						c-0.054-0.073-0.09-0.175-0.127-0.277l-2.096-7.696C105.916,106.94,131.762,98.702,130.101,93.58z"/>
					<path id="XMLID_1116_" style="opacity:0.1;" d="M106.413,109.831l-2.222-7.973c0.78,2.297,6.487,1.869,12.355,0.241
						l0.002,0.001l42.955,158.587l10.257,29.962l-21.869-32.013l0.018-0.005c0,0-0.001-0.001-0.001-0.001L106.413,109.831z"/>
					<path id="XMLID_1106_" style="fill:#F28F8F;" d="M121.042,61.224l9.06,32.356c0.712,2.19-3.598,4.949-8.914,6.987
						c-7.116,2.733-16.016,4.203-16.996,1.291c-0.014-0.009-0.014-0.009-0.02-0.032l-8.708-31.125
						c-2.629-7.092,10.23-14.063,18.804-13.529C117.476,57.349,120.06,58.57,121.042,61.224z"/>
				</g>
			</g>
		</g>
		<g id="XMLID_16985_">
			<g id="XMLID_1913_">
				<g id="XMLID_16974_">
					<g id="XMLID_1974_">
						<path id="XMLID_2008_" style="fill:#263238;" d="M83.077,99.451L83.077,99.451c-10.101,0-18.29-8.188-18.29-18.289v-1.01
							c0-8.561,6.94-15.501,15.501-15.501h5.577c8.561,0,15.501,6.94,15.501,15.501v1.01
							C101.367,91.262,93.178,99.451,83.077,99.451z"/>
					</g>
					<path id="XMLID_7_" style="fill:#263238;" d="M57.361,101.308L57.361,101.308c4.588,0,8.306-3.719,8.306-8.306V76.487l0,0
						c-4.588,0-8.306,3.719-8.306,8.307V101.308z"/>
					<g id="XMLID_16975_">
						<path id="XMLID_2063_" style="fill:#263238;" d="M101.901,280.376c2.123,2.325,4.465,4.187,6.979,6.07
							c0.376,0.281,0.765,0.579,0.969,1.003c0.329,0.684,0.84,2.378-2.28,3.467c-3.049,1.064-6.851,0.815-9.629-0.924
							c-2.563-1.604-2.677-4.941-5.095-6.844c-1.792-1.411-4.03-1.772-5.478-3.614c-1.008-1.283-0.746-2.99-0.22-5.103
							c0.574-2.307,0.838-4.052,1.602-3.875l-0.126,1.061c0.952,1.521,5.89,1.969,8.088,0.92
							C96.712,272.536,100.515,278.859,101.901,280.376z"/>
					</g>
					<g id="XMLID_1968_">
						<path id="XMLID_2061_" style="fill:#FFA8A7;" d="M104.066,282.534c0-0.003,0-0.013,0-0.016
							c-0.742-0.68-1.469-1.381-2.165-2.143c-0.893-0.978-2.791-3.95-4.029-5.94c-0.753-1.21-1.683-2.736-1.722-4.34
							c-0.051-2.04,0.146-5.67,0.146-5.67l-7.313-0.482l-0.358,7.672l0-0.001c-0.189,1.739,1.248,3.283,3.794,5.476
							c2.545,2.194,5.779,7.31,8.084,8.598c2.305,1.287,3.953,1.239,4.936,0.581C106.449,285.591,106.548,285.071,104.066,282.534z"
							/>
					</g>
					<g id="XMLID_1085_">
						<path id="XMLID_1086_" style="fill:#263238;" d="M77.549,287.687c2.123,2.325,4.465,4.188,6.979,6.07
							c0.376,0.282,0.765,0.579,0.969,1.002c0.329,0.684,0.84,2.378-2.28,3.467c-3.049,1.064-6.851,0.815-9.629-0.924
							c-2.563-1.604-2.678-4.941-5.095-6.845c-1.792-1.411-4.03-1.772-5.478-3.614c-1.008-1.283-0.746-2.99-0.22-5.103
							c0.574-2.307,0.838-4.052,1.602-3.875l-0.126,1.061c0.952,1.521,5.89,1.969,8.088,0.92
							C72.36,279.847,76.163,286.17,77.549,287.687z"/>
					</g>
					<g id="XMLID_1083_">
						<path id="XMLID_1084_" style="fill:#FFA8A7;" d="M79.713,289.844c0-0.003,0-0.013,0-0.016
							c-0.742-0.68-1.469-1.381-2.165-2.143c-0.893-0.978-2.791-3.95-4.03-5.94c-0.753-1.21-1.595-2.815-1.713-4.415
							c-0.132-1.792-0.04-5.517-0.04-5.517l-7.312,0.039l-0.183,7.073l0,0c-0.189,1.739,1.248,3.283,3.794,5.476
							c2.545,2.194,5.779,7.31,8.084,8.597c2.305,1.287,3.953,1.239,4.936,0.581C82.096,292.902,82.196,292.381,79.713,289.844z"/>
					</g>
					<g id="XMLID_1964_">
						<path id="XMLID_2055_" style="fill:#37474F;" d="M64.364,153.339c-6.375,13.923,0.876,66.713,0.876,66.713
							c-0.192,2.259-2.184,5.769-2.418,12.671c-0.299,8.858,1.272,41.572,1.272,41.572s3.839,2.325,8.342,0.166
							c0,0,7.549-44.406,9.022-56.087c1.286-10.195,3.754-34.158,3.754-34.158l5.076,34.103c0,0-2.608,5.693-2.743,10.833
							c-0.182,6.901,0.836,38.928,0.836,38.928s3.089,1.084,8.475,0.291c0,0,7.679-43.342,8.401-51.611
							c0.431-4.94-3.261-65.506-3.261-65.506L64.364,153.339z"/>
					</g>
					<g id="XMLID_1963_">
						<path id="XMLID_2053_" style="fill:#263238;" d="M85.213,184.215l2.07-11.385c0,0,8.755-1.814,12.726-5.547
							c0,0-4.166,5.182-10.354,6.879l-2.324,9.956l2.297,29.755L85.213,184.215z"/>
					</g>
					<g id="XMLID_1961_">
						<path id="XMLID_2051_" style="fill:#F5F5F5;" d="M76.807,104.921L76.807,104.921c-5.592,0.773-8.592,2.007-10.397,7.263
							c-1.181,3.439-0.861,8.498,0.327,11.934l4.889,14.285c0,0-4.822,7.512-7.26,14.935c14.292,7.977,33.335,3.735,37.633-2.086
							c0.182-1.235-0.977-7.204-0.63-13.536c0.37-6.752,1.454-14.507,0.392-18.681c-1.971-7.748-7.379-12.807-13.469-14.439
							L76.807,104.921z"/>
					</g>
					<g id="XMLID_1951_">
						<path id="XMLID_2045_" style="fill:#FFA8A7;" d="M95.359,72.047c1.932,1.142,4.319,6.001,4.084,16.187
							c-0.2,8.633-2.998,10.765-4.403,11.38s-4.115,0.241-6.749-0.198v5.181c0,0,3.641,4.229,3.412,6.605
							c-0.229,2.376-5.257,2.937-8.665,0.616c-3.407-2.321-5.591-5.854-5.591-5.854V93.44c0,0-1.778,2.375-4.688,0.443
							c-2.909-1.932-3.02-6.713-1.328-8.43c1.691-1.717,5.336-1.173,6.016,1.199c0,0,4.201,0.153,9.796-2.92
							C92.837,80.659,94.987,75.394,95.359,72.047z"/>
					</g>
					<g id="XMLID_1949_">
						<path id="XMLID_2043_" style="fill:#263238;" d="M89.804,86.065c0.031,0.622-0.429,1.149-1.028,1.178
							c-0.599,0.028-1.11-0.453-1.141-1.075c-0.031-0.622,0.429-1.149,1.028-1.178C89.262,84.962,89.773,85.443,89.804,86.065z"/>
					</g>
					<g id="XMLID_1947_">
						<path id="XMLID_2041_" style="fill:#F28F8F;" d="M90.094,93.383l2.521,0.804c-0.209,0.722-0.943,1.127-1.64,0.905
							C90.279,94.87,89.885,94.105,90.094,93.383z"/>
					</g>
					<g id="XMLID_1941_">
						<path id="XMLID_2039_" style="fill:#263238;" d="M98.705,82.731l-2.197-1.523c0.401-0.627,1.218-0.795,1.824-0.374
							C98.939,81.255,99.106,82.104,98.705,82.731z"/>
					</g>
					<g id="XMLID_1923_">
						<path id="XMLID_2037_" style="fill:#263238;" d="M98.199,85.28c0.031,0.622-0.429,1.149-1.028,1.178
							c-0.599,0.028-1.109-0.453-1.141-1.075c-0.031-0.622,0.429-1.149,1.028-1.178C97.657,84.176,98.168,84.658,98.199,85.28z"/>
					</g>
					<g id="XMLID_1921_">
						<polygon id="XMLID_2035_" style="fill:#F28F8F;" points="93.077,84.658 93.25,91.193 96.689,90.128 						"/>
					</g>
					<g id="XMLID_1919_">
						<path id="XMLID_2031_" style="fill:#F28F8F;" d="M88.29,99.416c-2.776-0.364-8.488-2.005-9.378-4.263
							c0,0,0.297,1.419,2.003,2.882c1.706,1.462,7.375,3.11,7.375,3.11V99.416z"/>
					</g>
				</g>
			</g>
		</g>
		<g id="XMLID_856_">
			<path id="XMLID_857_" style="fill:#FFA8A7;" d="M132.229,146.997c-1.697,0.641-3.399,0.685-5.716,1.778
				c-2.041,0.963-2.899,1.324-4.998,1.425c-2.276,0.11-8.641-2.604-14.238-5.206c-6.604-3.07-13.627-8.63-16.33-11.683
				c-5.487-6.197-10.17-13.95-12.588-18.092c-1.992-3.413-4.045-8.367-7.187-8.99c-5.504,0.576-7.738,10.159-4.168,16.081
				c3.57,5.922,9.915,13.664,16.682,20.227c3.28,3.181,9.29,6.627,17.894,10.309c6.493,2.778,11.704,4.504,17.373,5.981
				c1.724,0.449,2.94,1.088,6.176,2.199c1.305,0.448,2.722,0.98,4.099,1.017c1.749,0.047,3.512-0.104,5.206-0.556
				c2.133-0.57,4.16-1.635,5.698-3.219c0.846-0.871,1.546-1.907,1.905-3.067c0.36-1.16,0.362-2.452-0.122-3.566
				c-0.098-0.226-0.221-0.451-0.419-0.599c-0.356-0.267-0.849-0.217-1.289-0.153c-2.46,0.357-5.06,1.109-7.534,1.205
				c-2.09,0.08-3.578-0.152-3.314-0.477c0.264-0.325,1.496-0.287,3.083-1.187c1.516-0.86,2.492-2.606,1.942-3.419
				C133.837,146.191,133.926,146.356,132.229,146.997z"/>
		</g>
		<path id="XMLID_842_" style="fill:#FFA8A7;" d="M136.858,123.9c0,0-2.275-1.81-6.598-1.099c-2.092,0.344-1.292,8.263,5.44,10.469
			c4.38,1.435,5.27,0.696,6.683,4.3c0,0,2.643-0.549,2-4.577c-0.643-4.028-2.402-7.7-5.337-11.166
			c-1.93-2.279-2.059-4.196-3.006-3.547c-1.071,0.734-0.415,2.615-0.415,2.615L136.858,123.9z"/>
	</g>
</g>
<g id="Coffee">
	<g id="Coffee_2_">
		<g id="XMLID_31_">
			<path id="XMLID_32_" style="fill:#263238;" d="M414.98,166.73c-16.074-5.919-41.701-5.919-57.24,0
				c-15.539,5.918-15.539,15.515,0,21.434c15.539,5.919,41.166,5.918,57.24-0.001C431.054,182.245,431.054,172.648,414.98,166.73z"
				/>
		</g>
		<g id="XMLID_29_">
			<path id="XMLID_30_" style="fill:#FAFAFA;" d="M428.312,140.705l-83.5,0.091l6.328,98.377h0.079
				c0.396,3.583,3.742,7.118,10.12,9.854c13.599,5.833,36.024,5.833,50.09,0c6.599-2.736,10.061-6.271,10.468-9.854h0.082
				L428.312,140.705z"/>
		</g>
		<g id="XMLID_27_">
			<path id="XMLID_28_" style="fill:#F0F0F0;" d="M344.813,140.796l1.286,19.979c1.918,1.33,4.208,2.594,6.974,3.739
				c18.055,7.478,47.832,7.477,66.509,0c0.807-0.322,1.481-0.676,2.213-1.016c2.977-1.404,5.241-2.948,5.241-2.948l1.276-19.845
				L344.813,140.796z"/>
		</g>
		<g id="XMLID_9_">
			<g id="XMLID_25_">
				<path id="XMLID_26_" style="fill:#27DEBF;" d="M433.59,143.613v-15.04h-9.731c-1.299-0.684-2.717-1.343-4.276-1.967
					c-18.677-7.478-48.454-7.478-66.51-0.001c-1.503,0.623-2.834,1.287-4.087,1.968h-9.455v15.041l0,0
					c0,4.9,4.514,9.801,13.542,13.539c18.056,7.477,47.833,7.477,66.51-0.001C428.922,153.414,433.591,148.513,433.59,143.613z"/>
			</g>
			<g id="XMLID_23_">
				<path id="XMLID_24_" style="fill:#27DEBF;" d="M419.582,115.035c-18.677-7.477-48.454-7.478-66.509,0
					c-18.055,7.477-18.056,19.601,0,27.078c18.056,7.478,47.833,7.477,66.509,0C438.259,134.635,438.259,122.512,419.582,115.035z"
					/>
			</g>
			<g id="XMLID_21_" style="opacity:0.3;">
				<path id="XMLID_22_" style="fill:#FFFFFF;" d="M419.582,115.035c-18.677-7.477-48.454-7.478-66.509,0
					c-18.055,7.477-18.056,19.601,0,27.078c18.056,7.478,47.833,7.477,66.509,0C438.259,134.635,438.259,122.512,419.582,115.035z"
					/>
			</g>
			<path id="XMLID_20_" style="fill:#27DEBF;" d="M421.599,124.342h0.003l-3.766-13.747H355.28l-3.772,13.747h0.003
				c-1.4,3.906,1.884,8.004,9.865,11.007c13.579,5.107,35.973,5.107,50.019-0.001C419.65,132.346,423.047,128.248,421.599,124.342z"
				/>
			<g id="XMLID_18_">
				<path id="XMLID_19_" style="fill:#27DEBF;" d="M408.645,103.595c-12.491-4.542-32.405-4.542-44.48-0.001
					c-12.075,4.542-12.075,11.907,0,16.449c12.075,4.543,31.989,4.542,44.48,0C421.135,115.501,421.135,108.137,408.645,103.595z"/>
			</g>
			<g id="XMLID_16_" style="opacity:0.3;">
				<path id="XMLID_17_" style="fill:#FFFFFF;" d="M408.645,103.595c-12.491-4.542-32.405-4.542-44.48-0.001
					c-12.075,4.542-12.075,11.907,0,16.449c12.075,4.543,31.989,4.542,44.48,0C421.135,115.501,421.135,108.137,408.645,103.595z"/>
			</g>
			<g id="XMLID_14_">
				<path id="XMLID_15_" style="fill:#27DEBF;" d="M413.681,111.831c-0.022,0.173-0.346,0.756-1.383,1.556
					c-0.973,0.735-2.594,1.664-5.122,2.594c-5.512,1.989-13.142,3.156-20.923,3.156c-7.781,0-15.281-1.145-20.577-3.134
					c-2.486-0.929-4.041-1.88-4.95-2.615c-1.016-0.821-1.296-1.426-1.296-1.578c0-0.302,1.08-2.226,6.246-4.171
					c5.296-1.989,12.796-3.134,20.577-3.134c7.781,0,15.411,1.145,20.923,3.155C412.362,109.54,413.659,111.442,413.681,111.831z"/>
			</g>
			<g id="XMLID_12_" style="opacity:0.1;">
				<path id="XMLID_13_" d="M412.298,113.387c-0.973,0.735-2.594,1.664-5.122,2.594c-5.512,1.989-13.142,3.156-20.923,3.156
					c-7.781,0-15.281-1.145-20.577-3.134c-2.486-0.929-4.041-1.88-4.95-2.615c0.908-0.735,2.464-1.686,4.95-2.615
					c5.296-1.988,12.796-3.134,20.577-3.134c7.781,0,15.411,1.145,20.923,3.155C409.704,111.723,411.325,112.631,412.298,113.387z"
					/>
			</g>
			<g id="XMLID_10_">
				<path id="XMLID_11_" style="fill:#263238;" d="M399.783,113.669c1.819-1.031,4.031-1.452,4.94-0.941
					c0.91,0.511,0.172,1.773-1.647,2.818c-1.819,1.044-4.031,1.466-4.941,0.941C397.226,115.961,397.963,114.7,399.783,113.669z"/>
			</g>
		</g>
		<g id="XMLID_6_">
			<path id="XMLID_8_" style="fill:#455A64;" d="M348.429,213.093c0,3.655,3.66,7.309,10.979,10.097
				c14.64,5.576,38.783,5.576,53.926,0c7.558-2.783,11.344-6.429,11.357-10.078l2.344-35.664
				c-0.001,3.878-4.019,7.757-12.055,10.716c-16.074,5.919-41.701,5.92-57.24,0.001c-7.77-2.96-11.655-6.839-11.654-10.718
				L348.429,213.093z"/>
		</g>
		<g id="XMLID_1_">
			<g id="XMLID_4_">
				<path id="XMLID_5_" style="fill:#263238;" d="M381.499,215.202c-1.359-1.828-2.11-4.074-3.21-6.053
					c-2.191-3.941-5.323-6.62-9.327-8.212c-0.536-0.213-1.197,0.008-1.452,0.525c-2.028,4.128-0.784,9.909,3.413,14.106
					c4.155,4.155,9.877,5.441,13.999,3.501c0.234-0.11,0.298-0.565,0.109-0.676C383.704,217.62,382.52,216.575,381.499,215.202z"/>
			</g>
			<g id="XMLID_2_">
				<path id="XMLID_3_" style="fill:#263238;" d="M371.197,199.804c2.162,0.825,4.182,2.126,5.881,3.618
					c1.818,1.597,3.225,3.635,4.255,5.824c1.566,3.326,3.06,5.383,5.356,7.095c0.499,0.373,1.262,0.272,1.606-0.248
					c2.741-4.148,1.654-10.505-2.87-15.029c-4.286-4.285-10.235-5.516-14.378-3.307
					C370.215,198.202,370.315,199.469,371.197,199.804z"/>
			</g>
		</g>
	</g>
</g>
</svg>
