<?xml version="1.0" encoding="utf-8"?>
<!-- Generator: Adobe Illustrator 27.5.0, SVG Export Plug-In . SVG Version: 6.00 Build 0)  -->
<svg version="1.1" xmlns="http://www.w3.org/2000/svg" xmlns:xlink="http://www.w3.org/1999/xlink" x="0px" y="0px"
	 viewBox="0 0 500 500" style="enable-background:new 0 0 500 500;" xml:space="preserve">
<g id="Background_Simple">
	<g>
		<path style="fill:#92E3A9;" d="M73.851,206.362c0,0-40.476,61.047-11.696,153.125c28.78,92.078,112.439,115.57,162.078,89.969
			c49.638-25.601,56.883-58.845,96.965-82.998c40.082-24.154,122.843-23.296,154.703-89.735
			c31.86-66.439-34.205-159.566-109.043-213.192C292.02,9.906,129.568,73.356,73.851,206.362z"/>
		<path style="opacity:0.7;fill:#FFFFFF;" d="M73.851,206.362c0,0-40.476,61.047-11.696,153.125
			c28.78,92.078,112.439,115.57,162.078,89.969c49.638-25.601,56.883-58.845,96.965-82.998
			c40.082-24.154,122.843-23.296,154.703-89.735c31.86-66.439-34.205-159.566-109.043-213.192
			C292.02,9.906,129.568,73.356,73.851,206.362z"/>
	</g>
</g>
<g id="Plant">
	<g>
		<g>
			<path style="fill:#263238;" d="M369.86,359.367c2.96,1.293,10.199,1.13,10.205,1.13c0.075-0.002-1.556-4.739-1.693-5.026
				c-1.588-3.323-6.612-8.81-10.699-8.257c-2.944,0.398-4.582,3.345-3.917,6.117C364.434,356.163,367.339,358.266,369.86,359.367z"
				/>
			<path style="fill:#263238;" d="M372.358,380.337c3.07,0.448,9.531-1.426,10.045-1.577c1.02,3.617,2.36,7.245,3.919,10.842
				c0.888,2.058,1.848,4.102,2.835,6.141c-0.59-0.863-1.123-1.631-1.209-1.73c-2.41-2.786-8.704-6.75-12.499-5.138
				c-2.736,1.161-3.536,4.435-2.163,6.934c1.402,2.551,4.76,3.813,7.482,4.21c2.762,0.403,8.302-1.084,9.764-1.497
				c0.387,0.779,0.764,1.559,1.155,2.335c1.871,3.725,3.754,7.435,5.489,11.13c0.612,1.302,1.167,2.606,1.728,3.91
				c-0.524-0.767-0.972-1.407-1.051-1.499c-2.41-2.785-8.703-6.75-12.5-5.138c-2.735,1.161-3.536,4.436-2.163,6.934
				c1.403,2.552,4.76,3.814,7.482,4.21c2.636,0.384,7.762-0.942,9.5-1.424c0.533,1.352,1.07,2.705,1.526,4.039
				c0.291,0.918,0.635,1.781,0.875,2.72c0.258,0.924,0.513,1.838,0.766,2.744c0.423,1.762,0.87,3.578,1.239,5.307
				c0.266,1.201,0.498,2.351,0.734,3.508c-0.594-1.303-1.812-3.829-1.938-4.029c-1.959-3.118-7.58-7.99-11.577-6.972
				c-2.879,0.734-4.167,3.849-3.187,6.526c0.999,2.735,4.127,4.491,6.757,5.295c2.896,0.885,9.309,0.077,10.109-0.03
				c0.385,1.916,0.74,3.783,1.048,5.551c0.165,0.935,0.308,1.814,0.453,2.698h2.55c-0.188-1.018-0.385-2.059-0.602-3.147
				c-0.382-1.947-0.83-4.02-1.309-6.145c0.482-0.191,3.217-1.298,5.641-2.652c2.111,2.286,7.52,4.962,8.22,5.302
				c-0.736,1.81-1.47,3.564-2.189,5.207c-0.216,0.498-0.425,0.96-0.636,1.434h2.686c0.067-0.162,0.133-0.317,0.201-0.483
				c0.755-1.835,1.526-3.811,2.298-5.848c0.776,0.162,7.124,1.451,10.082,0.784c2.683-0.606,5.933-2.125,7.134-4.778
				c1.176-2.596,0.124-5.799-2.694-6.745c-3.909-1.313-9.877,3.126-12.064,6.091c-0.129,0.174-1.317,2.228-2.044,3.535
				c0.311-0.833,0.622-1.64,0.931-2.502c0.625-1.701,1.197-3.416,1.819-5.26c0.27-0.901,0.542-1.811,0.817-2.73
				c0.291-0.906,0.485-1.9,0.735-2.857c0.532-2.233,0.962-4.521,1.344-6.835c1.49,0.542,6.811,2.393,9.569,2.199
				c2.744-0.193,6.186-1.2,7.774-3.641c1.556-2.389,1.001-5.714-1.64-7.077c-3.666-1.89-10.238,1.595-12.848,4.193
				c-0.163,0.161-1.826,2.237-2.718,3.393c0.219-1.393,0.444-2.782,0.62-4.199c0.508-4.089,0.894-8.245,1.298-12.388
				c0.123-1.27,0.261-2.533,0.394-3.798c0.528,0.199,6.805,2.536,9.893,2.319c2.744-0.192,6.187-1.201,7.775-3.641
				c1.556-2.388,1.001-5.714-1.64-7.075c-3.666-1.891-10.237,1.594-12.848,4.192c-0.196,0.196-2.586,3.184-3.157,3.975
				c0.294-2.787,0.614-5.56,1.039-8.282c0.582-3.755,1.361-7.409,2.377-10.892c0.245,0.093,6.786,2.561,9.949,2.34
				c2.744-0.193,6.187-1.201,7.775-3.641c1.555-2.388,1.001-5.714-1.64-7.076c-3.666-1.891-10.237,1.595-12.848,4.193
				c-0.204,0.204-2.773,3.421-3.198,4.038c0.061-0.207,0.102-0.428,0.165-0.634c1.132-3.705,2.694-7.152,4.315-10.307
				c0.938-1.836,1.938-3.538,2.947-5.171c1.172,0.585,6.553,3.198,9.421,3.312c2.749,0.11,6.281-0.514,8.128-2.765
				c1.809-2.204,1.622-5.57-0.852-7.214c-3.437-2.282-10.351,0.461-13.231,2.756c-0.156,0.125-1.608,1.57-2.65,2.638
				c0.466-0.731,0.934-1.493,1.396-2.184c1.725-2.599,3.465-4.871,5.023-6.872c0.895-1.13,1.726-2.135,2.514-3.067
				c1.448-0.025,7.284-0.203,9.836-1.4c2.489-1.17,5.337-3.35,5.94-6.199c0.589-2.79-1.127-5.691-4.081-6.009
				c-4.101-0.442-8.974,5.178-10.472,8.542c-0.129,0.291-1.632,5.071-1.556,5.071c0,0,0.07-0.001,0.088-0.001
				c-0.777,0.881-1.598,1.835-2.475,2.895c-1.604,1.971-3.398,4.212-5.187,6.783c-1.794,2.565-3.671,5.402-5.379,8.568
				c-1.716,3.172-3.358,6.596-4.594,10.342c-0.014,0.042-0.023,0.089-0.038,0.131c0.022-1.208-0.032-4.589-0.065-4.847
				c-0.474-3.652-3.534-10.432-7.591-11.182c-2.922-0.54-5.396,1.749-5.629,4.591c-0.237,2.902,1.866,5.806,3.918,7.639
				c2.314,2.067,8.736,4.068,9.248,4.226c-1.145,3.579-2.029,7.345-2.714,11.204c-0.393,2.207-0.722,4.441-1.022,6.686
				c-0.016-1.045-0.037-1.98-0.054-2.11c-0.474-3.653-3.535-10.431-7.591-11.181c-2.922-0.541-5.396,1.749-5.629,4.59
				c-0.238,2.902,1.866,5.806,3.917,7.639c2.082,1.859,7.523,3.676,8.969,4.137c-0.106,0.862-0.222,1.723-0.325,2.585
				c-0.495,4.139-0.97,8.271-1.561,12.311c-0.207,1.423-0.464,2.818-0.716,4.213c-0.014-0.928-0.035-1.709-0.05-1.828
				c-0.474-3.653-3.535-10.432-7.59-11.182c-2.923-0.539-5.398,1.749-5.631,4.591c-0.238,2.901,1.867,5.806,3.919,7.638
				c1.986,1.775,6.994,3.497,8.71,4.053c-0.301,1.422-0.6,2.846-0.956,4.211c-0.264,0.926-0.454,1.836-0.77,2.751
				c-0.295,0.912-0.586,1.817-0.875,2.711c-0.62,1.703-1.249,3.464-1.895,5.11c-0.441,1.149-0.883,2.235-1.323,3.33
				c0.223-1.415,0.601-4.193,0.607-4.429c0.056-2.446-0.812-6.424-2.542-9.22c0.011-0.361-0.01-0.721-0.067-1.079
				c-0.452-2.815-3.096-4.906-5.968-4.141c-3.986,1.061-6.513,8.058-6.702,11.735c-0.011,0.217,0.131,2.585,0.245,4.077
				c-0.201-0.867-0.385-1.711-0.603-2.601c-0.418-1.763-0.888-3.509-1.385-5.391c-0.272-0.9-0.547-1.809-0.825-2.727
				c-0.256-0.915-0.643-1.851-0.963-2.787c-0.788-2.155-1.692-4.301-2.65-6.443c1.543-0.37,7.002-1.762,9.195-3.444
				c2.183-1.674,4.497-4.415,4.476-7.325c-0.02-2.852-2.317-5.319-5.271-4.998c-4.101,0.445-7.659,6.978-8.404,10.585
				c-0.046,0.225-0.289,2.873-0.395,4.331c-0.586-1.282-1.165-2.566-1.8-3.845c-1.832-3.691-3.801-7.37-5.751-11.049
				c-0.598-1.126-1.179-2.255-1.766-3.384c0.551-0.126,7.076-1.64,9.531-3.524c2.182-1.674,4.497-4.414,4.476-7.326
				c-0.021-2.85-2.317-5.318-5.272-4.996c-4.101,0.445-7.659,6.977-8.403,10.584c-0.056,0.272-0.4,4.083-0.44,5.056
				c-1.292-2.486-2.555-4.975-3.702-7.48c-1.586-3.454-2.952-6.93-4.026-10.396c0.257-0.058,7.074-1.608,9.589-3.537
				c2.183-1.674,4.497-4.414,4.476-7.326c-0.02-2.851-2.317-5.318-5.272-4.997c-4.1,0.445-7.659,6.978-8.403,10.585
				c-0.058,0.283-0.426,4.384-0.439,5.131c-0.064-0.206-0.153-0.412-0.213-0.618c-1.099-3.716-1.698-7.452-2.087-10.978
				c-0.23-2.048-0.335-4.018-0.394-5.938c1.299-0.159,7.229-0.948,9.684-2.435c2.354-1.425,4.956-3.894,5.254-6.79
				c0.293-2.836-1.72-5.541-4.69-5.546c-4.125-0.008-8.379,6.094-9.515,9.598c-0.062,0.191-0.476,2.197-0.756,3.662
				c-0.013-0.866-0.044-1.761-0.04-2.591c0.006-3.119,0.203-5.975,0.398-8.503c0.122-1.437,0.262-2.734,0.406-3.945
				c1.194-0.821,5.963-4.188,7.431-6.595c1.432-2.349,2.603-5.739,1.534-8.447c-1.047-2.652-4.079-4.125-6.718-2.761
				c-3.664,1.894-4.628,9.27-4.023,12.903c0.053,0.313,1.437,5.129,1.5,5.088c0,0,0.059-0.04,0.072-0.05
				c-0.162,1.163-0.321,2.412-0.467,3.78c-0.251,2.529-0.511,5.387-0.584,8.519c-0.082,3.128-0.082,6.531,0.241,10.114
				c0.319,3.591,0.837,7.353,1.874,11.16c0.012,0.043,0.03,0.087,0.042,0.13c-0.649-1.02-2.559-3.809-2.73-4.007
				c-2.41-2.786-8.703-6.751-12.5-5.139c-2.735,1.162-3.536,4.436-2.163,6.935C366.28,378.679,369.637,379.94,372.358,380.337z"/>
			<path style="fill:#263238;" d="M443.086,360.96c0.064,0.04,1.316-4.812,1.361-5.127c0.507-3.647-0.656-10.995-4.369-12.789
				c-2.675-1.292-5.667,0.262-6.641,2.942c-0.996,2.735,0.266,6.092,1.762,8.402C436.953,357.099,443.081,360.956,443.086,360.96z"
				/>
		</g>
	</g>
</g>
<g id="Character">
	<g>
		<path style="fill:none;stroke:#263238;stroke-miterlimit:10;" d="M203.857,287.363c0,0,3.443-0.626,5.32-2.66
			c1.878-2.034,3.286-6.572,4.851-5.32c1.565,1.252,3.286,4.225,2.191,7.981c-1.095,3.756-5.633,7.981-5.633,7.981l-11.58-6.729
			L203.857,287.363z"/>
		<polygon style="fill:#FFFFFF;stroke:#263238;stroke-miterlimit:10;" points="173.655,361.381 165.849,360.525 175.107,353.299 		
			"/>
		<g>
			<path style="fill:#FFFFFF;stroke:#263238;stroke-miterlimit:10;" d="M178.037,287.051l-0.313,6.103
				c0,0-6.259,25.507-5.946,26.446s-0.469,27.854,0.156,30.984c0.626,3.13,1.721,10.797,1.721,10.797s8.607-0.313,12.519-2.347
				c3.912-2.034,9.076-6.572,9.076-6.572l-3.13-12.206c0,0,2.973-1.878,4.382-5.007c1.408-3.13,1.878-6.259,1.878-6.259l2.504-0.783
				c0,0,3.286,1.721,4.851,0.156c1.565-1.565,0.313-3.756-0.157-4.851c-0.469-1.095-2.191-5.008-2.191-5.008
				s1.878,2.817,3.756,2.504c1.878-0.313,2.347-0.156,2.504-1.408c0.156-1.252-0.782-4.695-0.782-4.695s3.599,1.408,5.007,0
				c1.408-1.408,0.939-2.973,0.782-3.443c-0.156-0.469-4.382-10.015-4.382-10.015s8.294,1.878,8.92,1.878
				c0.626,0,2.66-0.469,3.286-2.66c0.626-2.191-6.259-4.851-12.049-9.076c-5.79-4.225-12.206-5.946-14.866-5.946
				C192.903,285.642,179.289,284.703,178.037,287.051z"/>
			<path style="fill:none;stroke:#263238;stroke-miterlimit:10;" d="M181.792,292.997c-0.626,0,18.465,2.034,20.03,2.504
				c1.565,0.469,7.355,5.008,7.355,5.008"/>
			<path style="fill:none;stroke:#263238;stroke-miterlimit:10;" d="M180.541,301.291c0,0,19.404,3.286,21.125,3.912
				c1.721,0.626,7.198,9.702,7.198,9.702"/>
			<path style="fill:none;stroke:#263238;stroke-miterlimit:10;" d="M178.506,309.741c0,0,17.683,4.069,19.404,4.851
				s4.382,3.13,4.382,3.13"/>
		</g>
		<polyline style="fill:none;stroke:#263238;stroke-miterlimit:10;" points="181.636,323.511 184.14,321.634 194.468,321.947 
			199.945,326.954 		"/>
		<path style="fill:#FFFFFF;stroke:#263238;stroke-miterlimit:10;" d="M165.849,360.525l1.806,7.452c0,0,4.29,1.129,12.871-2.258
			c8.581-3.387,17.162-9.71,17.162-9.71l-0.677-5.419C197.011,350.589,182.108,361.428,165.849,360.525z"/>
		<path style="fill:#263238;stroke:#263238;stroke-miterlimit:10;" d="M198.14,354.202c0,0-11.291,7.226-19.42,9.71
			c-8.129,2.484-16.71,2.71-16.71,2.71s9.936,45.614,13.097,52.614c3.161,7,8.259,27.1,8.259,27.1h57
			c0,0-33.872-65.488-35.001-70.456C204.237,370.912,198.14,354.202,198.14,354.202z"/>
		<g>
			<path style="fill:#FFFFFF;stroke:#263238;stroke-miterlimit:10;" d="M221.278,184.96c0,0-10.679,24.829-9.344,28.033
				c1.335,3.204,6.675,8.276,4.272,11.747c-2.403,3.471-16.286,14.951-13.616,20.825c2.67,5.874,9.611,6.141,9.611,6.141
				s-1.335,7.742,0.534,9.611c1.869,1.869,1.869,1.869,1.869,1.869s0,4.005,1.335,5.874c1.335,1.869,4.806,3.471,4.806,3.471
				s-6.674,9.878-5.34,13.082c1.335,3.204,16.553,8.276,22.96,9.878c6.408,1.602,17.888-0.534,17.888-0.534l3.204,16.019
				l60.605-35.509l-9.344-23.761c0,0,16.019-14.417,16.82-36.043c0.801-21.626-5.874-41.916-17.888-49.125
				c-12.014-7.208-28.3-5.874-28.3-5.874s-9.077-10.412-23.761-5.34C242.904,160.398,221.278,184.96,221.278,184.96z"/>
			<path style="fill:#263238;stroke:#263238;stroke-miterlimit:10;" d="M216.473,212.727c0,0,0,2.937,3.471,1.602
				s5.34-3.738,8.009-3.204c2.67,0.534,6.141,1.869,4.005-1.869c-2.136-3.738-7.209-2.136-10.145-0.801
				S216.473,212.727,216.473,212.727z"/>
			<path style="fill:none;stroke:#263238;stroke-width:2;stroke-miterlimit:10;" d="M223.414,223.139
				c1.093,5.646,0.865,10.438-0.51,10.705c-1.375,0.266-3.376-4.094-4.47-9.74c-1.093-5.646-0.865-10.438,0.51-10.705
				C220.319,213.133,222.321,217.493,223.414,223.139z"/>
			
				<line style="fill:none;stroke:#263238;stroke-width:2;stroke-miterlimit:10;" x1="223.147" y1="221.003" x2="274.141" y2="217.532"/>
			<path style="fill:#263238;stroke:#263238;stroke-miterlimit:10;" d="M215.672,254.643c0,0-5.073-1.068-6.141,4.272
				c-1.068,5.34,3.738,7.476,5.073,7.476s3.738-1.602,8.01,0.267c4.272,1.869,8.01,4.272,8.01,8.81s-1.602,7.742-5.073,7.475
				c-3.471-0.267-5.874-6.674-7.742-5.874c-1.869,0.801-6.674,8.276-3.471,13.349c3.204,5.073,24.562,14.684,31.504,14.417
				c6.941-0.267,32.839-22.694,36.31-30.97c3.471-8.276-1.068-11.747-1.869-14.15c-0.801-2.403-8.81-22.694-8.81-28.567
				c0-5.874,3.738-19.223,11.213-19.757c7.475-0.534,12.014,15.485,9.611,21.359c-2.403,5.874-6.141,8.543-6.141,8.543
				s-1.602,17.087,2.937,20.024s16.553,6.674,22.16,6.941s7.742,1.068,10.679-4.539c2.937-5.607-2.136-8.009-0.534-11.213
				s14.684-18.956,16.019-35.776c1.335-16.82-2.937-30.436-10.145-41.115c-7.208-10.679-22.694-20.558-27.766-21.359
				c-5.073-0.801-10.946-2.937-10.946-2.937s5.607-2.403,1.335-6.141c-4.272-3.738-12.815-5.607-26.698-1.068
				c-13.883,4.539-19.223,9.878-19.223,9.878s0.801-7.208-7.208-4.005c-8.01,3.204-21.893,17.621-20.024,26.965
				c1.869,9.344,6.141,9.077,12.014,7.208c5.874-1.869,14.951-5.874,18.956-5.34c4.005,0.534,6.675,0.801-0.534,6.941
				c-7.209,6.141-17.087,12.548-11.747,15.485c5.34,2.937,20.291,11.213,22.159,17.354c1.869,6.141-6.408,49.125-9.344,54.197
				c-2.937,5.073-8.543,6.675-12.014,2.937c-3.471-3.738-6.408-13.349-12.281-17.621
				C218.075,253.842,215.672,254.643,215.672,254.643z"/>
			<path style="fill:none;stroke:#263238;stroke-miterlimit:10;" d="M286.155,241.294c0,0-6.141,1.602-7.208,1.602"/>
		</g>
		<path style="fill:#92E3A9;stroke:#263238;stroke-miterlimit:10;" d="M251.086,319.251c0,0-11.92,9.685-13.596,13.782
			c-1.676,4.097-1.304,11.92-1.304,12.665c0,0.745-9.126,7.636-12.292,16.948c-3.166,9.312-3.352,20.86-3.352,20.86l20.673-37.622
			l11.734-23.84L251.086,319.251z"/>
		<path style="fill:#FFFFFF;stroke:#263238;stroke-miterlimit:10;" d="M300.839,279.205c0,0-52.328,29.101-51.528,32.839
			c0.801,3.738,3.738,14.684,3.738,14.684s41.115-32.572,48.591-36.577c7.475-4.005,23.228-9.878,23.228-9.878
			s-2.937-7.742-3.738-8.543C320.329,270.929,306.713,276.802,300.839,279.205z"/>
		<path style="fill:#263238;stroke:#263238;stroke-miterlimit:10;" d="M255.452,316.316l-41.916,79.828l-30.169,50.193h180.747
			c0,0-1.335-41.649-4.005-68.08c-2.67-26.431-22.16-77.959-26.164-83.299c-4.005-5.34-5.073-8.009-5.073-8.009
			s-0.801-8.543-3.738-9.878S293.097,285.613,255.452,316.316z"/>
	</g>
</g>
<g id="Bubble">
	<g>
		<circle style="fill:#263238;stroke:#263238;stroke-miterlimit:10;" cx="404.34" cy="122.408" r="71.189"/>
		<ellipse style="fill:#263238;stroke:#263238;stroke-miterlimit:10;" cx="354.609" cy="178.61" rx="9.878" ry="9.537"/>
		<path style="fill:#263238;stroke:#263238;stroke-miterlimit:10;" d="M347.055,190.807c0,3.798-3.189,6.877-7.123,6.877
			c-3.934,0-7.123-3.079-7.123-6.877s3.189-6.877,7.123-6.877C343.866,183.93,347.055,187.009,347.055,190.807z"/>
	</g>
	<g>
		
			<circle style="fill:#FFFFFF;stroke:#263238;stroke-linecap:round;stroke-linejoin:round;stroke-miterlimit:10;" cx="401.615" cy="117.64" r="71.189"/>
		
			<ellipse style="fill:#FFFFFF;stroke:#263238;stroke-linecap:round;stroke-linejoin:round;stroke-miterlimit:10;" cx="351.884" cy="173.842" rx="9.878" ry="9.537"/>
		<path style="fill:#FFFFFF;stroke:#263238;stroke-linecap:round;stroke-linejoin:round;stroke-miterlimit:10;" d="M344.331,186.039
			c0,3.798-3.189,6.877-7.123,6.877c-3.934,0-7.123-3.079-7.123-6.877c0-3.798,3.189-6.877,7.123-6.877
			C341.142,179.162,344.331,182.241,344.331,186.039z"/>
	</g>
</g>
<g id="Light_Bulb">
	<g>
		<g>
			<path style="fill:#92E3A9;stroke:#263238;stroke-linecap:round;stroke-linejoin:round;stroke-miterlimit:10;" d="M431.99,107.708
				c0-17.313-14.632-31.209-32.204-29.996c-14.651,1.011-26.594,12.758-27.826,27.393c-0.701,8.327,1.997,16.016,6.856,21.84
				c4.429,5.309,6.85,12.007,6.85,18.921v4.12h32.508v-4.12c0-6.907,2.408-13.603,6.836-18.903
				C429.366,121.747,431.99,115.035,431.99,107.708z"/>
			
				<rect x="385.665" y="149.994" style="fill:#FFFFFF;stroke:#263238;stroke-linecap:round;stroke-linejoin:round;stroke-miterlimit:10;" width="32.508" height="8.041"/>
			<path style="fill:#FFFFFF;stroke:#263238;stroke-linecap:round;stroke-linejoin:round;stroke-miterlimit:10;" d="
				M413.448,166.097h-23.058c-2.61,0-4.725-2.116-4.725-4.725v-3.316h32.508v3.316C418.174,163.981,416.058,166.097,413.448,166.097
				z"/>
			<path style="fill:#263238;stroke:#263238;stroke-miterlimit:10;" d="M407.662,174.128h-11.484c-3.54,0-6.41-2.87-6.41-6.41
				v-1.631h24.304v1.631C414.072,171.258,411.202,174.128,407.662,174.128z"/>
		</g>
		<g>
			
				<line style="fill:none;stroke:#263238;stroke-linecap:round;stroke-linejoin:round;stroke-miterlimit:10;" x1="436.258" y1="107.866" x2="450.032" y2="107.866"/>
			
				<line style="fill:none;stroke:#263238;stroke-linecap:round;stroke-linejoin:round;stroke-miterlimit:10;" x1="352.516" y1="107.866" x2="366.467" y2="107.866"/>
			
				<line style="fill:none;stroke:#263238;stroke-linecap:round;stroke-linejoin:round;stroke-miterlimit:10;" x1="401.274" y1="72.92" x2="401.274" y2="59.107"/>
			
				<line style="fill:none;stroke:#263238;stroke-linecap:round;stroke-linejoin:round;stroke-miterlimit:10;" x1="426.243" y1="82.897" x2="435.751" y2="73.388"/>
			
				<line style="fill:none;stroke:#263238;stroke-linecap:round;stroke-linejoin:round;stroke-miterlimit:10;" x1="366.797" y1="142.343" x2="376.444" y2="132.695"/>
			
				<line style="fill:none;stroke:#263238;stroke-linecap:round;stroke-linejoin:round;stroke-miterlimit:10;" x1="376.031" y1="82.622" x2="366.797" y2="73.388"/>
			
				<line style="fill:none;stroke:#263238;stroke-linecap:round;stroke-linejoin:round;stroke-miterlimit:10;" x1="435.751" y1="142.343" x2="426.556" y2="133.148"/>
		</g>
	</g>
</g>
<g id="Gears">
	<polygon style="fill:#FFFFFF;stroke:#263238;stroke-miterlimit:10;" points="162.01,365.852 169.462,362.916 169.914,366.529 	"/>
	<path style="fill:#D1D1D1;" d="M295.332,177.233v-3.117h-3.576c-0.173-1.779-0.647-3.465-1.355-5.025l3.104-1.792l-1.559-2.7
		l-3.107,1.794c-1.017-1.418-2.259-2.66-3.677-3.677l1.794-3.107l-2.7-1.559l-1.792,3.104c-1.559-0.708-3.246-1.182-5.025-1.355
		v-3.576h-3.117v3.576c-1.779,0.173-3.466,0.647-5.025,1.355l-1.792-3.104l-2.7,1.559l1.794,3.107
		c-1.418,1.018-2.66,2.259-3.677,3.677l-3.107-1.794l-1.559,2.7l3.104,1.792c-0.708,1.559-1.182,3.246-1.355,5.025h-3.576v3.117
		h3.576c0.173,1.779,0.647,3.466,1.355,5.025l-3.104,1.792l1.559,2.7l3.107-1.794c1.018,1.418,2.259,2.66,3.677,3.677l-1.794,3.107
		l2.7,1.559l1.792-3.104c1.559,0.708,3.246,1.182,5.025,1.355v3.576h3.117v-3.576c1.779-0.172,3.465-0.647,5.025-1.355l1.792,3.104
		l2.7-1.559l-1.794-3.107c1.418-1.018,2.66-2.259,3.677-3.677l3.107,1.794l1.559-2.7l-3.104-1.792
		c0.708-1.559,1.182-3.246,1.355-5.025H295.332z M275.881,163.471c6.377,0,11.604,4.894,12.149,11.129h-9.844
		c-0.406-0.87-1.282-1.476-2.306-1.476c-0.126,0-0.248,0.019-0.369,0.037l-5.122-8.374
		C272.041,163.952,273.903,163.471,275.881,163.471z M263.677,175.674c0-4.13,2.057-7.774,5.196-9.982l5.088,8.319
		c-0.388,0.447-0.631,1.024-0.631,1.663c0,0.577,0.199,1.103,0.522,1.531l-4.991,8.442
		C265.729,183.438,263.677,179.799,263.677,175.674z M275.881,187.878c-1.983,0-3.85-0.483-5.505-1.323l4.962-8.391
		c0.176,0.038,0.357,0.061,0.544,0.061c1.167,0,2.141-0.789,2.443-1.859h9.725C287.689,182.782,282.387,187.878,275.881,187.878z"/>
	<path style="fill:#D1D1D1;" d="M303.597,218.048l3.117-0.002l-0.002-3.576c1.779-0.174,3.465-0.649,5.024-1.358l1.794,3.103
		l2.699-1.561l-1.796-3.106c1.417-1.018,2.658-2.261,3.675-3.68l3.108,1.792l1.557-2.701l-3.106-1.79
		c0.707-1.56,1.18-3.247,1.352-5.026l3.576-0.003l-0.002-3.117l-3.576,0.003c-0.174-1.779-0.649-3.465-1.358-5.024l3.103-1.794
		l-1.561-2.699l-3.106,1.796c-1.018-1.417-2.261-2.658-3.68-3.675l1.792-3.108l-2.701-1.557l-1.79,3.106
		c-1.56-0.707-3.247-1.18-5.026-1.352l-0.003-3.576l-3.117,0.002l0.003,3.576c-1.779,0.174-3.465,0.649-5.024,1.358l-1.794-3.103
		l-2.699,1.561l1.796,3.106c-1.417,1.019-2.658,2.261-3.675,3.68l-3.108-1.792l-1.557,2.701l3.106,1.79
		c-0.707,1.56-1.18,3.247-1.352,5.026l-3.576,0.003l0.002,3.117l3.576-0.003c0.174,1.779,0.649,3.465,1.358,5.024l-3.103,1.794
		l1.56,2.699l3.106-1.796c1.018,1.417,2.261,2.658,3.68,3.675l-1.792,3.108l2.701,1.557l1.79-3.106
		c1.56,0.707,3.247,1.18,5.026,1.352L303.597,218.048z M317.346,198.588c0.004,6.377-4.886,11.608-11.121,12.157l-0.007-9.844
		c0.869-0.407,1.475-1.283,1.474-2.306c0-0.126-0.02-0.248-0.038-0.369l8.371-5.128C316.862,194.749,317.345,196.61,317.346,198.588
		z M305.134,186.393c4.13-0.003,7.775,2.051,9.985,5.189l-8.315,5.094c-0.448-0.388-1.025-0.63-1.663-0.63
		c-0.577,0-1.103,0.2-1.53,0.523l-8.445-4.986C297.372,188.45,301.01,186.395,305.134,186.393z M292.939,198.605
		c-0.001-1.983,0.481-3.85,1.319-5.506l8.395,4.956c-0.038,0.175-0.061,0.357-0.061,0.544c0.001,1.167,0.79,2.14,1.861,2.442
		l0.007,9.725C298.043,210.409,292.944,205.111,292.939,198.605z"/>
</g>
<g id="Arrows">
	<g>
		<g>
			<path style="fill:none;stroke:#263238;stroke-miterlimit:10;" d="M34.769,188.148c0,0,0.865,0,2.491,0.157"/>
			<path style="fill:none;stroke:#263238;stroke-miterlimit:10;stroke-dasharray:5.0259,5.0259;" d="M42.234,189.003
				c9.302,1.662,26.579,6.553,47.715,20.944c25.81,17.573,70.211,17.881,92.883,15.556"/>
			<path style="fill:none;stroke:#263238;stroke-miterlimit:10;" d="M185.335,225.226c0.866-0.104,1.692-0.211,2.475-0.32"/>
			<g>
				<polygon style="fill:#263238;" points="187.223,229.983 194.859,223.572 185.489,220.162 				"/>
			</g>
		</g>
	</g>
	<g>
		<g>
			<path style="fill:none;stroke:#263238;stroke-miterlimit:10;" d="M34.088,75.743c0,0,0.66,0.573,1.889,1.631"/>
			<path style="fill:none;stroke:#263238;stroke-miterlimit:10;stroke-dasharray:5.1046,5.1046;" d="M39.849,80.693
				c19.461,16.609,83.294,70.18,114.817,85.655c16.502,8.101,27.453,12.634,34.543,15.17"/>
			<path style="fill:none;stroke:#263238;stroke-miterlimit:10;" d="M191.624,182.357c0.862,0.29,1.653,0.544,2.377,0.767"/>
			<g>
				<polygon style="fill:#263238;" points="191.417,187.53 200.991,184.741 193.79,177.844 				"/>
			</g>
		</g>
	</g>
	<g>
		<g>
			<path style="fill:none;stroke:#263238;stroke-miterlimit:10;" d="M33.216,360.443c0,0,0.873,0.081,2.491,0.158"/>
			<path style="fill:none;stroke:#263238;stroke-miterlimit:10;stroke-dasharray:5.0474,5.0474;" d="M40.75,360.735
				c16.029,0.123,54.926-2.202,90.074-24.759c21.887-14.047,35.24-50.871,47.173-69.195"/>
			<path style="fill:none;stroke:#263238;stroke-miterlimit:10;" d="M179.414,264.684c0.497-0.705,0.992-1.375,1.486-2.006"/>
			<g>
				<polygon style="fill:#263238;" points="183.572,267.304 186.003,257.634 176.413,260.362 				"/>
			</g>
		</g>
	</g>
	<g>
		<g>
			<path style="fill:none;stroke:#263238;stroke-miterlimit:10;" d="M36.813,284.883c0,0,0.863,0.127,2.48,0.28"/>
			<path style="fill:none;stroke:#263238;stroke-miterlimit:10;stroke-dasharray:4.9072,4.9072;" d="M44.182,285.512
				c14.995,0.759,50.854-0.011,88.685-19.703c12.951-6.742,22.78-11.904,29.475-15.436"/>
			<path style="fill:none;stroke:#263238;stroke-miterlimit:10;" d="M164.517,249.223c0.791-0.418,1.527-0.807,2.208-1.168"/>
			<g>
				<polygon style="fill:#263238;" points="167.735,253.121 173.06,244.69 163.096,244.292 				"/>
			</g>
		</g>
	</g>
</g>
<g id="Chart">
	<g>
		<rect x="83.153" y="307.212" style="fill:#263238;stroke:#263238;stroke-miterlimit:10;" width="6.613" height="23.146"/>
		
			<rect x="94.726" y="294.735" style="fill:#92E3A9;stroke:#263238;stroke-linecap:round;stroke-linejoin:round;stroke-miterlimit:10;" width="6.613" height="35.623"/>
		<rect x="106.299" y="314.176" style="fill:#263238;stroke:#263238;stroke-miterlimit:10;" width="6.613" height="16.182"/>
		
			<rect x="117.872" y="296.476" style="fill:#92E3A9;stroke:#263238;stroke-linecap:round;stroke-linejoin:round;stroke-miterlimit:10;" width="6.613" height="33.882"/>
		<g>
			<line style="fill:#FFFFFF;stroke:#263238;stroke-miterlimit:10;" x1="75.406" y1="293.797" x2="80.049" y2="293.797"/>
			<line style="fill:#FFFFFF;stroke:#263238;stroke-miterlimit:10;" x1="75.406" y1="299.02" x2="80.049" y2="299.02"/>
			<line style="fill:#FFFFFF;stroke:#263238;stroke-miterlimit:10;" x1="75.406" y1="304.243" x2="80.049" y2="304.243"/>
			<line style="fill:#FFFFFF;stroke:#263238;stroke-miterlimit:10;" x1="75.406" y1="309.466" x2="80.049" y2="309.466"/>
			<line style="fill:#FFFFFF;stroke:#263238;stroke-miterlimit:10;" x1="75.406" y1="314.689" x2="80.049" y2="314.689"/>
			<line style="fill:#FFFFFF;stroke:#263238;stroke-miterlimit:10;" x1="75.406" y1="319.912" x2="80.049" y2="319.912"/>
			<line style="fill:#FFFFFF;stroke:#263238;stroke-miterlimit:10;" x1="75.406" y1="325.135" x2="80.049" y2="325.135"/>
			<line style="fill:#FFFFFF;stroke:#263238;stroke-miterlimit:10;" x1="75.406" y1="330.358" x2="80.049" y2="330.358"/>
		</g>
		<g>
			<g>
				<polyline style="fill:none;stroke:#263238;stroke-miterlimit:10;" points="84.691,301.342 99.2,285.963 109.646,300.761 
					120.361,288.226 				"/>
				<g>
					<polygon style="fill:#263238;" points="123.204,292.575 125.024,282.771 115.623,286.095 					"/>
				</g>
			</g>
		</g>
	</g>
</g>
<g id="Document">
	<g>
		<g>
			<rect x="34.711" y="224.339" style="fill:#263238;stroke:#263238;stroke-miterlimit:10;" width="41.144" height="51.995"/>
			
				<rect x="37.188" y="222.313" style="fill:#92E3A9;stroke:#263238;stroke-linecap:round;stroke-linejoin:round;stroke-miterlimit:10;" width="41.144" height="51.995"/>
			<line style="fill:#FFFFFF;stroke:#263238;stroke-miterlimit:10;" x1="44.874" y1="237.233" x2="70.193" y2="237.233"/>
			<line style="fill:#FFFFFF;stroke:#263238;stroke-miterlimit:10;" x1="44.874" y1="245.371" x2="70.193" y2="245.371"/>
			<line style="fill:#FFFFFF;stroke:#263238;stroke-miterlimit:10;" x1="44.874" y1="253.51" x2="70.193" y2="253.51"/>
			<line style="fill:#FFFFFF;stroke:#263238;stroke-miterlimit:10;" x1="44.874" y1="261.648" x2="70.193" y2="261.648"/>
		</g>
		<g>
			<path style="fill:#263238;stroke:#263238;stroke-miterlimit:10;" d="M75.076,220.613c-7.337,0-13.285,5.948-13.285,13.285
				c0,7.337,5.948,13.285,13.285,13.285c7.337,0,13.285-5.948,13.285-13.285C88.361,226.561,82.413,220.613,75.076,220.613z
				 M75.076,244.338c-5.766,0-10.44-4.674-10.44-10.44c0-5.766,4.674-10.44,10.44-10.44c5.766,0,10.44,4.674,10.44,10.44
				C85.516,239.664,80.842,244.338,75.076,244.338z"/>
			
				<line style="fill:#FFFFFF;stroke:#263238;stroke-width:5;stroke-linecap:round;stroke-miterlimit:10;" x1="86.11" y1="239.753" x2="106.375" y2="249.66"/>
		</g>
	</g>
</g>
<g id="Speech_bubbles">
	<g>
		<g>
			<path style="fill:#263238;stroke:#263238;stroke-miterlimit:10;" d="M120.748,178.266h32.686c2.903,0,5.257,2.354,5.257,5.257
				v19.776c0,2.903-2.354,5.257-5.257,5.257h-2.885l-6.174,9.385l-0.722-9.385h-22.905c-2.903,0-5.257-2.354-5.257-5.257v-19.776
				C115.491,180.619,117.845,178.266,120.748,178.266z"/>
			<g>
				<path style="fill:#FFFFFF;" d="M130.45,193.183c0-1.421-1.152-2.572-2.572-2.572c-1.421,0-2.572,1.152-2.572,2.572
					s1.152,2.572,2.572,2.572C129.298,195.755,130.45,194.603,130.45,193.183z"/>
				<circle style="fill:#FFFFFF;" cx="138.488" cy="193.183" r="2.572"/>
				<path style="fill:#FFFFFF;" d="M151.67,193.183c0-1.421-1.152-2.572-2.572-2.572c-1.421,0-2.572,1.152-2.572,2.572
					s1.152,2.572,2.572,2.572C150.519,195.755,151.67,194.603,151.67,193.183z"/>
			</g>
		</g>
		<path style="fill:#FFFFFF;stroke:#263238;stroke-miterlimit:10;" d="M126.803,165.405H94.117c-2.903,0-5.257,2.354-5.257,5.257
			v19.776c0,2.903,2.354,5.257,5.257,5.257h2.885l6.174,9.385l0.722-9.385h22.905c2.903,0,5.257-2.354,5.257-5.257v-19.776
			C132.06,167.758,129.706,165.405,126.803,165.405z"/>
		<g>
			<path style="fill:#263238;stroke:#263238;stroke-miterlimit:10;" d="M102.422,181.287c0-1.421-1.152-2.572-2.572-2.572
				c-1.421,0-2.572,1.152-2.572,2.572c0,1.421,1.152,2.572,2.572,2.572C101.271,183.859,102.422,182.707,102.422,181.287z"/>
			<path style="fill:#263238;stroke:#263238;stroke-miterlimit:10;" d="M113.032,181.287c0-1.421-1.152-2.572-2.572-2.572
				s-2.572,1.152-2.572,2.572c0,1.421,1.152,2.572,2.572,2.572S113.032,182.707,113.032,181.287z"/>
			<path style="fill:#263238;stroke:#263238;stroke-miterlimit:10;" d="M123.643,181.287c0-1.421-1.152-2.572-2.572-2.572
				c-1.421,0-2.572,1.152-2.572,2.572c0,1.421,1.152,2.572,2.572,2.572C122.491,183.859,123.643,182.707,123.643,181.287z"/>
		</g>
	</g>
</g>
<g id="Pictures">
	<g>
		<g>
			<rect x="47.585" y="104.556" style="fill:#FFFFFF;stroke:#263238;stroke-miterlimit:10;" width="54.542" height="40.436"/>
			<polygon style="fill:#263238;stroke:#263238;stroke-miterlimit:10;" points="102.128,125.192 93.194,117.251 78.618,132.297 
				66.863,124.774 47.585,144.992 102.128,144.992 			"/>
			<path style="fill:#263238;stroke:#263238;stroke-miterlimit:10;" d="M65.225,115.719c0,3.443-2.791,6.234-6.234,6.234
				s-6.234-2.791-6.234-6.234c0-3.443,2.791-6.234,6.234-6.234S65.225,112.276,65.225,115.719z"/>
		</g>
		<g>
			<rect x="80.1" y="115.578" style="fill:#FFFFFF;stroke:#263238;stroke-miterlimit:10;" width="54.542" height="40.436"/>
			<polygon style="fill:#92E3A9;stroke:#263238;stroke-linecap:round;stroke-linejoin:round;stroke-miterlimit:10;" points="
				134.642,136.214 125.708,128.273 111.132,143.319 99.378,135.796 80.1,156.014 134.642,156.014 			"/>
			
				<circle style="fill:#92E3A9;stroke:#263238;stroke-linecap:round;stroke-linejoin:round;stroke-miterlimit:10;" cx="91.506" cy="126.741" r="6.234"/>
		</g>
	</g>
</g>
<g id="Line_1_">
	<g>
		<line style="fill:none;stroke:#263238;stroke-miterlimit:10;" x1="73.429" y1="446.336" x2="468.716" y2="446.336"/>
		<line style="fill:none;stroke:#263238;stroke-miterlimit:10;" x1="49.756" y1="446.336" x2="63.748" y2="446.336"/>
	</g>
</g>
</svg>
